<svg width="48" height="48" viewBox="0 0 48 48" fill="none" xmlns="http://www.w3.org/2000/svg">
<path d="M17.4736 7.73438C23.7588 1.46863 33.9826 1.44868 40.2871 7.7334C43.3326 10.7789 44.9999 14.8315 45 19.1396C45 23.4473 43.3328 27.4995 40.2881 30.5449C36.2112 34.5827 30.4115 36.1711 24.9443 34.7754L24.668 34.7051L24.4668 34.9062L15.667 43.6855L15.6582 43.6943C14.926 44.4613 13.5645 45 12.3604 45C12.1887 45 11.9907 44.9824 11.8154 44.9629L7.48828 44.3643H7.4873C5.68951 44.1222 4.02937 42.5333 3.66602 40.7031L3.63477 40.5254L3.03613 36.1523L3.03516 36.1494L3.01074 35.916C2.97207 35.3606 3.06214 34.728 3.26465 34.1143C3.49553 33.4147 3.85978 32.7772 4.29395 32.333L13.0742 23.5537L13.2744 23.3535L13.2051 23.0781C11.8277 17.5677 13.4189 11.7496 17.4717 7.73535L17.4736 7.73438ZM28.8604 5.01953C25.2346 5.01953 21.6262 6.38805 18.8682 9.14551C15.137 12.8559 13.7895 18.2863 15.3408 23.3408V23.3418C15.449 23.7071 15.3565 24.0771 15.0869 24.3467L5.68652 33.7461C5.43479 33.9978 5.24913 34.3907 5.13477 34.7393C5.02014 35.0887 4.94033 35.507 4.98438 35.8447L4.98535 35.8477L5.58496 40.2275L5.58594 40.2383C5.66669 40.7491 5.96886 41.2444 6.33301 41.6172C6.69575 41.9884 7.18738 42.3055 7.71484 42.375L12.0723 42.9756V42.9736C12.4225 43.0282 12.8441 42.9551 13.1943 42.8438C13.5483 42.7312 13.9401 42.5449 14.1924 42.293L14.1934 42.2939L23.6338 32.874V32.873C23.8937 32.6133 24.2775 32.5285 24.6328 32.6377C29.6314 34.2128 35.0836 32.8634 38.8135 29.1338C41.4678 26.4794 42.9404 22.9114 42.9404 19.1396C42.9404 15.4661 41.5588 12.022 39.0596 9.39746L38.8135 9.14648C36.1144 6.40746 32.4851 5.01955 28.8604 5.01953Z" fill="#494949" stroke="#494949"/>
<path d="M13.0732 34.2725C13.4579 33.8878 14.1015 33.8881 14.4863 34.2725L19.0869 38.873C19.4714 39.2578 19.4716 39.9015 19.0869 40.2861C18.8856 40.4874 18.6344 40.5791 18.3799 40.5791C18.1255 40.579 17.875 40.4872 17.6738 40.2861L13.0732 35.6855C12.6889 35.3008 12.6886 34.6571 13.0732 34.2725Z" fill="#494949" stroke="#494949"/>
<path d="M29 15C31.2039 15 33 16.7961 33 19C33 21.2039 31.2039 23 29 23C26.7961 23 25 21.2039 25 19C25 16.7961 26.7961 15 29 15ZM29 17C27.9039 17 27 17.9039 27 19C27 20.0961 27.9039 21 29 21C30.0961 21 31 20.0961 31 19C31 17.9039 30.0961 17 29 17Z" fill="#494949" stroke="#494949"/>
</svg>