<svg width="48" height="48" viewBox="0 0 48 48" fill="none" xmlns="http://www.w3.org/2000/svg">
<path d="M16 11.5C15.18 11.5 14.5 10.82 14.5 10V4C14.5 3.18 15.18 2.5 16 2.5C16.82 2.5 17.5 3.18 17.5 4V10C17.5 10.82 16.82 11.5 16 11.5Z" fill="#494949"/>
<path d="M32 11.5C31.18 11.5 30.5 10.82 30.5 10V4C30.5 3.18 31.18 2.5 32 2.5C32.82 2.5 33.5 3.18 33.5 4V10C33.5 10.82 32.82 11.5 32 11.5Z" fill="#494949"/>
<path d="M17 29C16.48 29 15.96 28.78 15.58 28.42C15.22 28.04 15 27.54 15 27C15 26.74 15.06 26.48 15.16 26.24C15.26 26 15.4 25.78 15.58 25.58C16.32 24.84 17.66 24.84 18.42 25.58C18.78 25.96 19 26.48 19 27C19 27.12 18.98 27.26 18.96 27.4C18.94 27.52 18.9 27.64 18.84 27.76C18.8 27.88 18.74 28 18.66 28.12C18.58 28.22 18.5 28.32 18.42 28.42C18.04 28.78 17.52 29 17 29Z" fill="#494949"/>
<path d="M24 29C23.74 29 23.48 28.94 23.24 28.84C22.98 28.74 22.78 28.6 22.58 28.42C22.22 28.04 22 27.54 22 27C22 26.74 22.06 26.48 22.16 26.24C22.26 26 22.4 25.78 22.58 25.58C22.78 25.4 22.98 25.26 23.24 25.16C23.98 24.86 24.86 25.02 25.42 25.58C25.78 25.96 26 26.48 26 27C26 27.12 25.98 27.26 25.96 27.4C25.94 27.52 25.9 27.64 25.84 27.76C25.8 27.88 25.74 28 25.66 28.12C25.6 28.22 25.5 28.32 25.42 28.42C25.04 28.78 24.52 29 24 29Z" fill="#494949"/>
<path d="M17 36.0001C16.74 36.0001 16.48 35.9401 16.24 35.8401C15.98 35.7401 15.76 35.6 15.58 35.42C15.4 35.24 15.26 35.0201 15.16 34.7601C15.06 34.5201 15 34.2601 15 34.0001C15 33.7401 15.06 33.48 15.16 33.24C15.26 32.98 15.4 32.7601 15.58 32.5801C15.76 32.4001 15.98 32.26 16.24 32.16C16.72 31.96 17.28 31.94 17.76 32.16C18.02 32.26 18.24 32.4001 18.42 32.5801C18.6 32.7601 18.74 32.98 18.84 33.24C18.94 33.48 19 33.7401 19 34.0001C19 34.2601 18.94 34.5201 18.84 34.7601C18.74 35.0201 18.6 35.24 18.42 35.42C18.24 35.6 18.02 35.7401 17.76 35.8401C17.52 35.9401 17.26 36.0001 17 36.0001Z" fill="#494949"/>
<path d="M41 19.6799H7C6.18 19.6799 5.5 18.9999 5.5 18.1799C5.5 17.3599 6.18 16.6799 7 16.6799H41C41.82 16.6799 42.5 17.3599 42.5 18.1799C42.5 18.9999 41.82 19.6799 41 19.6799Z" fill="#494949"/>
<path d="M36 47.5C33.66 47.5 31.44 46.66 29.74 45.12C29.02 44.52 28.38 43.76 27.86 42.88C26.98 41.44 26.5 39.74 26.5 38C26.5 32.76 30.76 28.5 36 28.5C38.72 28.5 41.32 29.68 43.12 31.72C44.66 33.48 45.5 35.7 45.5 38C45.5 39.74 45.02 41.44 44.12 42.9C42.44 45.74 39.32 47.5 36 47.5ZM36 31.5C32.42 31.5 29.5 34.42 29.5 38C29.5 39.18 29.82 40.34 30.44 41.34C30.78 41.94 31.22 42.44 31.7 42.86C32.9 43.94 34.4 44.5 36 44.5C38.3 44.5 40.38 43.32 41.56 41.36C42.18 40.34 42.5 39.2 42.5 38C42.5 36.44 41.92 34.92 40.88 33.7C39.64 32.3 37.86 31.5 36 31.5Z" fill="#494949"/>
<path d="M34.8598 41.48C34.4798 41.48 34.0998 41.34 33.7998 41.04L31.8198 39.06C31.2398 38.48 31.2398 37.52 31.8198 36.94C32.3998 36.36 33.3598 36.36 33.9398 36.94L34.8998 37.9L38.0998 34.94C38.6998 34.38 39.6598 34.42 40.2198 35.02C40.7798 35.62 40.7398 36.58 40.1398 37.14L35.8798 41.08C35.5798 41.34 35.2198 41.48 34.8598 41.48Z" fill="#494949"/>
<path d="M30.74 45.5H16C8.7 45.5 4.5 41.3 4.5 34V17C4.5 9.7 8.7 5.5 16 5.5H32C39.3 5.5 43.5 9.7 43.5 17V32.72C43.5 33.34 43.12 33.9 42.52 34.12C41.94 34.34 41.28 34.18 40.86 33.7C39.62 32.3 37.84 31.5 35.98 31.5C32.4 31.5 29.48 34.42 29.48 38C29.48 39.18 29.8 40.34 30.42 41.34C30.76 41.94 31.2 42.44 31.68 42.86C32.16 43.26 32.34 43.92 32.12 44.52C31.94 45.1 31.38 45.5 30.74 45.5ZM16 8.5C10.28 8.5 7.5 11.28 7.5 17V34C7.5 39.72 10.28 42.5 16 42.5H27.64C26.9 41.14 26.5 39.6 26.5 38C26.5 32.76 30.76 28.5 36 28.5C37.58 28.5 39.14 28.9 40.5 29.64V17C40.5 11.28 37.72 8.5 32 8.5H16Z" fill="#494949"/>
</svg>