<svg width="48" height="49" viewBox="0 0 48 49" fill="none" xmlns="http://www.w3.org/2000/svg">
<path d="M4 24.7207H38C38.5439 24.7207 39 25.1768 39 25.7207C39 26.2646 38.5439 26.7207 38 26.7207H4C3.45614 26.7207 3 26.2646 3 25.7207C3 25.1768 3.45614 24.7207 4 24.7207Z" fill="#494949" stroke="#494949"/>
<path d="M11.5605 12.5996H30.4404C33.8474 12.5997 35.9328 13.1485 37.1904 14.3926C38.4465 15.6352 39 17.6939 39 21.0596V35.3594C38.9597 38.5983 38.3901 40.5759 37.1377 41.7705C35.8792 42.9709 33.8087 43.4999 30.4404 43.5H11.5605C8.15343 43.5 6.06728 42.951 4.80957 41.707C3.55358 40.4644 3.00005 38.4054 3 35.04V21.0596C3 18.3806 3.31044 16.3825 4.29199 15.0078C5.24772 13.6694 6.92288 12.8155 9.93848 12.6387L9.93945 12.6396C10.4597 12.6196 10.9914 12.5996 11.5605 12.5996ZM11.5605 14.5996C11.0088 14.5996 10.4988 14.6196 10.0381 14.6396L10.0293 14.6406C8.25558 14.7496 6.89837 14.9911 6.05273 16.0107C5.63396 16.5158 5.37477 17.1702 5.21777 17.9873C5.06112 18.8028 5 19.8133 5 21.0596V35.04C5.00001 36.3258 5.0521 37.3797 5.22266 38.2295C5.3944 39.085 5.69448 39.7763 6.22168 40.2959C6.74813 40.8146 7.44821 41.1099 8.31543 41.2793C9.17794 41.4477 10.2498 41.5 11.5605 41.5H30.4404C31.736 41.5 32.7944 41.4499 33.6475 41.29C34.5042 41.1295 35.1982 40.8503 35.7246 40.3574C36.2538 39.8619 36.5601 39.2001 36.7412 38.3818C36.8758 37.7736 36.9458 37.0571 36.9785 36.2217L37 35.3457V21.0596C37 19.7737 36.9479 18.7199 36.7773 17.8701C36.6056 17.0145 36.3055 16.3233 35.7783 15.8037C35.2519 15.2849 34.5519 14.9897 33.6846 14.8203C32.8222 14.6519 31.751 14.5996 30.4404 14.5996H11.5605Z" fill="#494949" stroke="#494949"/>
<path d="M17.5605 5.5H36.4404C39.8474 5.50005 41.9328 6.04891 43.1904 7.29297C44.4465 8.53561 45 10.5943 45 13.96V27.9404C45 30.6193 44.6895 32.6176 43.708 33.9922C42.7525 35.3302 41.0777 36.1833 38.0635 36.3604H38C37.7345 36.3604 37.4881 36.2604 37.334 36.1064L37.3271 36.1006L37.3213 36.0947L37.25 36.0205C37.0922 35.8396 37.0001 35.6037 37 35.3604V21.0596C37 19.7738 36.9479 18.7199 36.7773 17.8701C36.6056 17.0146 36.3055 16.3233 35.7783 15.8037C35.2519 15.285 34.5518 14.9897 33.6846 14.8203C32.8222 14.6519 31.751 14.5996 30.4404 14.5996H11.5605C11.0088 14.5996 10.4988 14.6206 10.0381 14.6406H10.0352C9.78332 14.6532 9.51184 14.5515 9.30078 14.3545C9.11286 14.179 9.0015 13.9183 9 13.626C9.03967 10.3941 9.60942 8.42047 10.8623 7.22754C12.1209 6.02929 14.192 5.5 17.5605 5.5ZM17.5605 7.5C16.4141 7.5 15.4553 7.53824 14.6621 7.65625C13.8693 7.77423 13.2061 7.97659 12.6729 8.32715C11.5662 9.05467 11.1934 10.2977 11.0615 12.0625L11.0215 12.5996H30.4404C33.8473 12.5997 35.9328 13.1487 37.1904 14.3926C38.4464 15.6352 39 17.6942 39 21.0596V34.2988L39.5889 34.1924C40.8308 33.9676 41.7533 33.5059 42.3125 32.4482C42.8362 31.4574 43 30.0074 43 27.9404V13.96C43 12.6741 42.9479 11.6203 42.7773 10.7705C42.6056 9.91492 42.3055 9.2237 41.7783 8.7041C41.2519 8.18527 40.5519 7.89009 39.6846 7.7207C38.8222 7.5523 37.751 7.50001 36.4404 7.5H17.5605Z" fill="#494949" stroke="#494949"/>
<path d="M10.4805 35.1191H13.9209C14.4646 35.1193 14.9209 35.5754 14.9209 36.1191C14.9209 36.6672 14.4802 37.1189 13.9209 37.1191H10.4805C9.93661 37.1191 9.48047 36.663 9.48047 36.1191C9.48047 35.5753 9.93661 35.1191 10.4805 35.1191Z" fill="#494949" stroke="#494949"/>
<path d="M18.2197 35.1191H25.0996C25.6435 35.1191 26.0996 35.5753 26.0996 36.1191C26.0996 36.6674 25.6591 37.1191 25.0996 37.1191H18.2197C17.6759 37.1191 17.2197 36.663 17.2197 36.1191C17.2197 35.5753 17.6759 35.1191 18.2197 35.1191Z" fill="#494949" stroke="#494949"/>
</svg>
