
<svg width="48" height="48" viewBox="0 0 48 48" fill="none" xmlns="http://www.w3.org/2000/svg">
<path d="M16.9785 4.66016H31.0391C33.9134 4.66021 35.6285 5.44083 36.7197 6.56348C37.6894 7.5612 38.2217 8.88298 38.584 10.3477L38.7295 10.9844L40.9893 21.8027L40.9912 21.8105C41.0535 22.0845 40.9831 22.3865 40.7939 22.6377C40.5852 22.8692 40.3045 22.9999 39.999 23H7.99902C7.68844 23 7.41571 22.8672 7.2334 22.6328L7.22461 22.6221C7.06402 22.427 6.98294 22.1558 7.00879 21.8994L7.02637 21.791L7.02832 21.7822L9.28809 10.9834C9.65311 9.25702 10.1892 7.69414 11.2969 6.55664C12.3877 5.43647 14.103 4.6602 16.9785 4.66016ZM16.9785 6.66016C14.9071 6.66019 13.5759 7.10262 12.7031 7.99902C11.8528 8.87239 11.5278 10.096 11.25 11.3955V11.3965L9.34961 20.3965L9.22168 21H38.7539L38.6279 20.3975L36.748 11.3975V11.3955L36.6406 10.9121C36.3807 9.79555 36.0387 8.76317 35.2949 7.99902C34.4222 7.10259 33.0901 6.66016 31.0186 6.66016H16.9785Z" fill="#494949" stroke="#494949"/>
<path d="M11.2393 21H36.7588C39.8777 21 41.5293 21.8518 42.46 22.9893C43.4139 24.1554 43.7018 25.723 43.8613 27.3682L44.9814 39.5459C45.1007 40.841 44.7082 42.135 43.8809 43.1445L43.71 43.3428C42.7464 44.3972 41.3611 45 39.9189 45H36.1592C34.6432 45 33.8173 44.5693 33.3203 44.0664C32.8035 43.5432 32.5766 42.8826 32.374 42.2646V42.2617L31.9736 41.0615L31.9727 41.0586L31.791 40.5391C31.7326 40.3787 31.6752 40.232 31.6152 40.1016C31.4924 39.8344 31.3389 39.5867 31.0986 39.3975C30.8559 39.2065 30.5719 39.1119 30.2559 39.0615C29.9466 39.0123 29.5709 39 29.1191 39H18.8789C17.9914 39 17.3358 39.0725 16.8691 39.457C16.6331 39.6516 16.4786 39.897 16.3574 40.1602C16.2395 40.4163 16.1365 40.7251 16.0244 41.0615L15.626 42.2598C15.4115 42.893 15.1857 43.552 14.6709 44.0732C14.1773 44.573 13.3565 45 11.8389 45H8.0791C6.63697 45 5.25161 44.3972 4.28809 43.3428H4.28906C3.34487 42.3078 2.88938 40.9274 3.0166 39.5459H3.01758L4.13672 27.3662V27.3652C4.28606 25.7225 4.57533 24.1548 5.53125 22.9893C6.46443 21.8517 8.12053 21 11.2393 21ZM11.2393 23.0195C9.19482 23.0195 7.90872 23.3671 7.1416 24.2246C6.39725 25.0569 6.25827 26.262 6.1416 27.5742L5.02148 39.7539V39.7568C4.9497 40.5943 5.21497 41.3944 5.79199 42.0195V42.0186C6.37495 42.6702 7.23259 43.0195 8.09961 43.0195H11.8594C12.1208 43.0195 12.3535 43.0192 12.5439 42.998C12.7402 42.9762 12.9527 42.9272 13.1426 42.7881C13.3315 42.6496 13.4417 42.4637 13.5215 42.2881C13.5988 42.1177 13.6716 41.9005 13.7529 41.6611L13.7539 41.6562L14.1543 40.4355L14.1562 40.4287C14.4081 39.6228 14.6901 38.7906 15.3359 38.1426C15.9623 37.5143 16.9968 37.0001 18.8789 37H29.1191C30.8666 37 31.8558 37.3883 32.4932 37.9502C33.1456 38.5254 33.507 39.3458 33.8652 40.4004L34.2852 41.6396C34.3665 41.8836 34.4388 42.1038 34.5156 42.2764C34.5947 42.4541 34.704 42.6424 34.8926 42.7832C35.0829 42.9253 35.2958 42.9757 35.4932 42.998C35.6841 43.0197 35.9175 43.0195 36.1787 43.0195H39.9395C40.8155 43.0195 41.6494 42.6639 42.2461 42.0195H42.2471C42.8241 41.3944 43.0894 40.5943 43.0176 39.7568V39.7539L41.8975 27.5742L41.8965 27.5723L41.8477 27.0859C41.725 25.9647 41.5323 24.9519 40.8818 24.2246C40.1151 23.3675 38.8343 23.0195 36.7988 23.0195H11.2393Z" fill="#494949" stroke="#494949"/>
<path d="M5.99902 15H7.99902C8.54288 15 8.99902 15.4561 8.99902 16C8.99902 16.5439 8.54288 17 7.99902 17H5.99902C5.45517 17 4.99902 16.5439 4.99902 16C4.99902 15.4561 5.45517 15 5.99902 15Z" fill="#494949" stroke="#494949"/>
<path d="M39.999 15H41.999C42.5429 15 42.999 15.4561 42.999 16C42.999 16.5439 42.5429 17 41.999 17H39.999C39.4552 17 38.999 16.5439 38.999 16C38.999 15.4561 39.4552 15 39.999 15Z" fill="#494949" stroke="#494949"/>
<path d="M23.999 5C24.5429 5 24.999 5.45614 24.999 6V10C24.999 10.5439 24.5429 11 23.999 11C23.4552 11 22.999 10.5439 22.999 10V6C22.999 5.45614 23.4552 5 23.999 5Z" fill="#494949" stroke="#494949"/>
<path d="M20.999 9H26.999C27.5429 9 27.999 9.45614 27.999 10C27.999 10.5439 27.5429 11 26.999 11H20.999C20.4552 11 19.999 10.5439 19.999 10C19.999 9.45614 20.4552 9 20.999 9Z" fill="#494949" stroke="#494949"/>
<path d="M11.999 29H17.999C18.5429 29 18.999 29.4561 18.999 30C18.999 30.5439 18.5429 31 17.999 31H11.999C11.4552 31 10.999 30.5439 10.999 30C10.999 29.4561 11.4552 29 11.999 29Z" fill="#494949" stroke="#494949"/>
<path d="M29.999 29H35.999C36.5429 29 36.999 29.4561 36.999 30C36.999 30.5439 36.5429 31 35.999 31H29.999C29.4552 31 28.999 30.5439 28.999 30C28.999 29.4561 29.4552 29 29.999 29Z" fill="#494949" stroke="#494949"/>
</svg>
