<svg width="24" height="24" viewBox="0 0 24 24" fill="none" xmlns="http://www.w3.org/2000/svg">
<mask id="mask0_23916_2210" style="mask-type:alpha" maskUnits="userSpaceOnUse" x="0" y="0" width="24" height="24">
<rect width="24" height="24" rx="12" fill="#C4C4C4"/>
</mask>
<g mask="url(#mask0_23916_2210)">
<path d="M32 0.5V23.4189H-8V0.5H32Z" fill="white" stroke="white"/>
<path d="M32.5 0H-8.5V7.9918H32.5V0Z" fill="#269E22"/>
<path d="M32.5 15.9277H-8.5V23.9195H32.5V15.9277Z" fill="#FF2F28"/>
<path d="M11.9998 9.07227L11.5674 9.42461L11.6475 15.0781L11.9998 15.4865L12.3521 15.0781L12.4322 9.42461L11.9998 9.07227Z" fill="#FF2F28"/>
<path d="M12.8728 8.48066C12.6966 8.76094 12.3282 8.84902 12.048 8.67285C12.0319 8.66484 12.0159 8.64883 11.9999 8.64082C11.7357 8.84102 11.3593 8.78496 11.1591 8.5207C11.1511 8.50469 11.1351 8.48867 11.1271 8.47266C11.055 8.75293 11.2232 9.0332 11.4954 9.10527C11.6716 9.15332 11.8638 9.09727 11.9919 8.96914C12.1921 9.16934 12.5204 9.17735 12.7206 8.97715C12.8648 8.84902 12.9128 8.65684 12.8728 8.48066Z" fill="#FF2F28"/>
<path d="M13.0893 9.26562C14.2424 10.8352 13.906 13.0533 12.3285 14.2065C11.6078 14.735 10.7109 14.9672 9.83008 14.8631C11.5117 15.5357 13.4176 14.719 14.0902 13.0373C14.6187 11.7 14.2184 10.1705 13.0893 9.26562Z" fill="#FF2F28"/>
<path d="M10.9105 9.26562C9.75742 10.8352 10.0937 13.0533 11.6713 14.2065C12.392 14.735 13.2889 14.9672 14.1697 14.8631C12.4881 15.5357 10.5822 14.719 9.90956 13.0373C9.38105 11.7 9.78144 10.1705 10.9105 9.26562Z" fill="#FF2F28"/>
<path d="M13.4971 9.15234C15.0746 10.2975 15.4269 12.5076 14.2738 14.0852C14.2178 14.1652 14.1537 14.2373 14.0896 14.3094C15.451 13.5727 15.9555 11.875 15.2187 10.5137C14.8584 9.84902 14.2338 9.35254 13.4971 9.15234Z" fill="#FF2F28"/>
<path d="M10.5028 9.15234C8.92529 10.2975 8.57295 12.5076 9.72608 14.0852C9.78213 14.1652 9.84619 14.2373 9.91026 14.3094C8.54893 13.5727 8.04443 11.875 8.78115 10.5137C9.14151 9.84902 9.76612 9.35254 10.5028 9.15234Z" fill="#FF2F28"/>
<mask id="path-11-inside-1_23916_2210" fill="white">
<path d="M-0.948242 7.60723H-0.764063V7.23086H-0.203516V7.60723H0.72539V7.03867H0.164843V7.23086H0.541211V7.42305H-0.019336V7.03867H-0.948242V7.60723ZM-0.579883 7.60723H-0.395704V7.41504H-0.579883V7.60723ZM-0.948242 6.84648H1.47812V6.6543H-0.948242V6.84648ZM1.47012 7.60723H0.90957V7.03867H1.6543V6.6623H1.83848V7.42305H2.02266V6.6623H2.20684V7.42305H2.39102V6.6623H2.5752V7.61523H1.64629V7.23887H1.08574V7.43105H1.46211V7.60723H1.47012Z"/>
</mask>
<path d="M-0.948242 7.60723H-0.764063V7.23086H-0.203516V7.60723H0.72539V7.03867H0.164843V7.23086H0.541211V7.42305H-0.019336V7.03867H-0.948242V7.60723ZM-0.579883 7.60723H-0.395704V7.41504H-0.579883V7.60723ZM-0.948242 6.84648H1.47812V6.6543H-0.948242V6.84648ZM1.47012 7.60723H0.90957V7.03867H1.6543V6.6623H1.83848V7.42305H2.02266V6.6623H2.20684V7.42305H2.39102V6.6623H2.5752V7.61523H1.64629V7.23887H1.08574V7.43105H1.46211V7.60723H1.47012Z" fill="white"/>
<path d="M-0.948242 7.60723H-1.94824V8.60723H-0.948242V7.60723ZM-0.764063 7.60723V8.60723H0.235937V7.60723H-0.764063ZM-0.764063 7.23086V6.23086H-1.76406V7.23086H-0.764063ZM-0.203516 7.23086H0.796484V6.23086H-0.203516V7.23086ZM-0.203516 7.60723H-1.20352V8.60723H-0.203516V7.60723ZM0.72539 7.60723V8.60723H1.72539V7.60723H0.72539ZM0.72539 7.03867H1.72539V6.03867H0.72539V7.03867ZM0.164843 7.03867V6.03867H-0.835157V7.03867H0.164843ZM0.164843 7.23086H-0.835157V8.23086H0.164843V7.23086ZM0.541211 7.23086H1.54121V6.23086H0.541211V7.23086ZM0.541211 7.42305V8.42305H1.54121V7.42305H0.541211ZM-0.019336 7.42305H-1.01934V8.42305H-0.019336V7.42305ZM-0.019336 7.03867H0.980664V6.03867H-0.019336V7.03867ZM-0.948242 7.03867V6.03867H-1.94824V7.03867H-0.948242ZM-0.579883 7.60723H-1.57988V8.60723H-0.579883V7.60723ZM-0.395704 7.60723V8.60723H0.604296V7.60723H-0.395704ZM-0.395704 7.41504H0.604296V6.41504H-0.395704V7.41504ZM-0.579883 7.41504V6.41504H-1.57988V7.41504H-0.579883ZM-0.948242 6.84648H-1.94824V7.84648H-0.948242V6.84648ZM1.47812 6.84648V7.84648H2.47812V6.84648H1.47812ZM1.47812 6.6543H2.47812V5.6543H1.47812V6.6543ZM-0.948242 6.6543V5.6543H-1.94824V6.6543H-0.948242ZM0.90957 7.60723H-0.0904299V8.60723H0.90957V7.60723ZM0.90957 7.03867V6.03867H-0.0904299V7.03867H0.90957ZM1.6543 7.03867V8.03867H2.6543V7.03867H1.6543ZM1.6543 6.6623V5.6623H0.654297V6.6623H1.6543ZM1.83848 6.6623H2.83848V5.6623H1.83848V6.6623ZM1.83848 7.42305H0.838477V8.42305H1.83848V7.42305ZM2.02266 7.42305V8.42305H3.02266V7.42305H2.02266ZM2.02266 6.6623V5.6623H1.02266V6.6623H2.02266ZM2.20684 6.6623H3.20684V5.6623H2.20684V6.6623ZM2.20684 7.42305H1.20684V8.42305H2.20684V7.42305ZM2.39102 7.42305V8.42305H3.39102V7.42305H2.39102ZM2.39102 6.6623V5.6623H1.39102V6.6623H2.39102ZM2.5752 6.6623H3.5752V5.6623H2.5752V6.6623ZM2.5752 7.61523V8.61523H3.5752V7.61523H2.5752ZM1.64629 7.61523H0.646289V8.61523H1.64629V7.61523ZM1.64629 7.23887H2.64629V6.23887H1.64629V7.23887ZM1.08574 7.23887V6.23887H0.0857418V7.23887H1.08574ZM1.08574 7.43105H0.0857418V8.43105H1.08574V7.43105ZM1.46211 7.43105H2.46211V6.43105H1.46211V7.43105ZM1.46211 7.60723H0.462109V8.60723H1.46211V7.60723ZM-0.948242 8.60723H-0.764063V6.60723H-0.948242V8.60723ZM0.235937 7.60723V7.23086H-1.76406V7.60723H0.235937ZM-0.764063 8.23086H-0.203516V6.23086H-0.764063V8.23086ZM-1.20352 7.23086V7.60723H0.796484V7.23086H-1.20352ZM-0.203516 8.60723H0.72539V6.60723H-0.203516V8.60723ZM1.72539 7.60723V7.03867H-0.27461V7.60723H1.72539ZM0.72539 6.03867H0.164843V8.03867H0.72539V6.03867ZM-0.835157 7.03867V7.23086H1.16484V7.03867H-0.835157ZM0.164843 8.23086H0.541211V6.23086H0.164843V8.23086ZM-0.458789 7.23086V7.42305H1.54121V7.23086H-0.458789ZM0.541211 6.42305H-0.019336V8.42305H0.541211V6.42305ZM0.980664 7.42305V7.03867H-1.01934V7.42305H0.980664ZM-0.019336 6.03867H-0.948242V8.03867H-0.019336V6.03867ZM-1.94824 7.03867V7.60723H0.0517578V7.03867H-1.94824ZM-0.579883 8.60723H-0.395704V6.60723H-0.579883V8.60723ZM0.604296 7.60723V7.41504H-1.3957V7.60723H0.604296ZM-0.395704 6.41504H-0.579883V8.41504H-0.395704V6.41504ZM-1.57988 7.41504V7.60723H0.420117V7.41504H-1.57988ZM-0.948242 7.84648H1.47812V5.84648H-0.948242V7.84648ZM2.47812 6.84648V6.6543H0.478125V6.84648H2.47812ZM1.47812 5.6543H-0.948242V7.6543H1.47812V5.6543ZM-1.94824 6.6543V6.84648H0.0517578V6.6543H-1.94824ZM1.47012 6.60723H0.90957V8.60723H1.47012V6.60723ZM1.90957 7.60723V7.03867H-0.0904299V7.60723H1.90957ZM0.90957 8.03867H1.6543V6.03867H0.90957V8.03867ZM2.6543 7.03867V6.6623H0.654297V7.03867H2.6543ZM1.6543 7.6623H1.83848V5.6623H1.6543V7.6623ZM0.838477 6.6623V7.42305H2.83848V6.6623H0.838477ZM1.83848 8.42305H2.02266V6.42305H1.83848V8.42305ZM3.02266 7.42305V6.6623H1.02266V7.42305H3.02266ZM2.02266 7.6623H2.20684V5.6623H2.02266V7.6623ZM1.20684 6.6623V7.42305H3.20684V6.6623H1.20684ZM2.20684 8.42305H2.39102V6.42305H2.20684V8.42305ZM3.39102 7.42305V6.6623H1.39102V7.42305H3.39102ZM2.39102 7.6623H2.5752V5.6623H2.39102V7.6623ZM1.5752 6.6623V7.61523H3.5752V6.6623H1.5752ZM2.5752 6.61523H1.64629V8.61523H2.5752V6.61523ZM2.64629 7.61523V7.23887H0.646289V7.61523H2.64629ZM1.64629 6.23887H1.08574V8.23887H1.64629V6.23887ZM0.0857418 7.23887V7.43105H2.08574V7.23887H0.0857418ZM1.08574 8.43105H1.46211V6.43105H1.08574V8.43105ZM0.462109 7.43105V7.60723H2.46211V7.43105H0.462109ZM1.46211 8.60723H1.47012V6.60723H1.46211V8.60723Z" fill="white" mask="url(#path-11-inside-1_23916_2210)"/>
<mask id="path-13-inside-2_23916_2210" fill="white">
<path d="M2.77539 7.60723H2.95957V7.23086H3.52012V7.60723H4.44902V7.03867H3.88848V7.23086H4.26484V7.42305H3.7043V7.03867H2.77539V7.60723ZM3.15176 7.60723H3.33594V7.41504H3.15176V7.60723ZM2.77539 6.84648H5.19375V6.6543H2.77539V6.84648ZM5.19375 7.60723H4.6332V7.03867H5.37793V6.6623H5.56211V7.42305H5.74629V6.6623H5.93047V7.42305H6.11465V6.6623H6.29883V7.61523H5.36992V7.23887H4.80937V7.43105H5.18574V7.60723H5.19375Z"/>
</mask>
<path d="M2.77539 7.60723H2.95957V7.23086H3.52012V7.60723H4.44902V7.03867H3.88848V7.23086H4.26484V7.42305H3.7043V7.03867H2.77539V7.60723ZM3.15176 7.60723H3.33594V7.41504H3.15176V7.60723ZM2.77539 6.84648H5.19375V6.6543H2.77539V6.84648ZM5.19375 7.60723H4.6332V7.03867H5.37793V6.6623H5.56211V7.42305H5.74629V6.6623H5.93047V7.42305H6.11465V6.6623H6.29883V7.61523H5.36992V7.23887H4.80937V7.43105H5.18574V7.60723H5.19375Z" fill="white"/>
<path d="M2.77539 7.60723H1.77539V8.60723H2.77539V7.60723ZM2.95957 7.60723V8.60723H3.95957V7.60723H2.95957ZM2.95957 7.23086V6.23086H1.95957V7.23086H2.95957ZM3.52012 7.23086H4.52012V6.23086H3.52012V7.23086ZM3.52012 7.60723H2.52012V8.60723H3.52012V7.60723ZM4.44902 7.60723V8.60723H5.44902V7.60723H4.44902ZM4.44902 7.03867H5.44902V6.03867H4.44902V7.03867ZM3.88848 7.03867V6.03867H2.88848V7.03867H3.88848ZM3.88848 7.23086H2.88848V8.23086H3.88848V7.23086ZM4.26484 7.23086H5.26484V6.23086H4.26484V7.23086ZM4.26484 7.42305V8.42305H5.26484V7.42305H4.26484ZM3.7043 7.42305H2.7043V8.42305H3.7043V7.42305ZM3.7043 7.03867H4.7043V6.03867H3.7043V7.03867ZM2.77539 7.03867V6.03867H1.77539V7.03867H2.77539ZM3.15176 7.60723H2.15176V8.60723H3.15176V7.60723ZM3.33594 7.60723V8.60723H4.33594V7.60723H3.33594ZM3.33594 7.41504H4.33594V6.41504H3.33594V7.41504ZM3.15176 7.41504V6.41504H2.15176V7.41504H3.15176ZM2.77539 6.84648H1.77539V7.84648H2.77539V6.84648ZM5.19375 6.84648V7.84648H6.19375V6.84648H5.19375ZM5.19375 6.6543H6.19375V5.6543H5.19375V6.6543ZM2.77539 6.6543V5.6543H1.77539V6.6543H2.77539ZM4.6332 7.60723H3.6332V8.60723H4.6332V7.60723ZM4.6332 7.03867V6.03867H3.6332V7.03867H4.6332ZM5.37793 7.03867V8.03867H6.37793V7.03867H5.37793ZM5.37793 6.6623V5.6623H4.37793V6.6623H5.37793ZM5.56211 6.6623H6.56211V5.6623H5.56211V6.6623ZM5.56211 7.42305H4.56211V8.42305H5.56211V7.42305ZM5.74629 7.42305V8.42305H6.74629V7.42305H5.74629ZM5.74629 6.6623V5.6623H4.74629V6.6623H5.74629ZM5.93047 6.6623H6.93047V5.6623H5.93047V6.6623ZM5.93047 7.42305H4.93047V8.42305H5.93047V7.42305ZM6.11465 7.42305V8.42305H7.11465V7.42305H6.11465ZM6.11465 6.6623V5.6623H5.11465V6.6623H6.11465ZM6.29883 6.6623H7.29883V5.6623H6.29883V6.6623ZM6.29883 7.61523V8.61523H7.29883V7.61523H6.29883ZM5.36992 7.61523H4.36992V8.61523H5.36992V7.61523ZM5.36992 7.23887H6.36992V6.23887H5.36992V7.23887ZM4.80937 7.23887V6.23887H3.80937V7.23887H4.80937ZM4.80937 7.43105H3.80937V8.43105H4.80937V7.43105ZM5.18574 7.43105H6.18574V6.43105H5.18574V7.43105ZM5.18574 7.60723H4.18574V8.60723H5.18574V7.60723ZM2.77539 8.60723H2.95957V6.60723H2.77539V8.60723ZM3.95957 7.60723V7.23086H1.95957V7.60723H3.95957ZM2.95957 8.23086H3.52012V6.23086H2.95957V8.23086ZM2.52012 7.23086V7.60723H4.52012V7.23086H2.52012ZM3.52012 8.60723H4.44902V6.60723H3.52012V8.60723ZM5.44902 7.60723V7.03867H3.44902V7.60723H5.44902ZM4.44902 6.03867H3.88848V8.03867H4.44902V6.03867ZM2.88848 7.03867V7.23086H4.88848V7.03867H2.88848ZM3.88848 8.23086H4.26484V6.23086H3.88848V8.23086ZM3.26484 7.23086V7.42305H5.26484V7.23086H3.26484ZM4.26484 6.42305H3.7043V8.42305H4.26484V6.42305ZM4.7043 7.42305V7.03867H2.7043V7.42305H4.7043ZM3.7043 6.03867H2.77539V8.03867H3.7043V6.03867ZM1.77539 7.03867V7.60723H3.77539V7.03867H1.77539ZM3.15176 8.60723H3.33594V6.60723H3.15176V8.60723ZM4.33594 7.60723V7.41504H2.33594V7.60723H4.33594ZM3.33594 6.41504H3.15176V8.41504H3.33594V6.41504ZM2.15176 7.41504V7.60723H4.15176V7.41504H2.15176ZM2.77539 7.84648H5.19375V5.84648H2.77539V7.84648ZM6.19375 6.84648V6.6543H4.19375V6.84648H6.19375ZM5.19375 5.6543H2.77539V7.6543H5.19375V5.6543ZM1.77539 6.6543V6.84648H3.77539V6.6543H1.77539ZM5.19375 6.60723H4.6332V8.60723H5.19375V6.60723ZM5.6332 7.60723V7.03867H3.6332V7.60723H5.6332ZM4.6332 8.03867H5.37793V6.03867H4.6332V8.03867ZM6.37793 7.03867V6.6623H4.37793V7.03867H6.37793ZM5.37793 7.6623H5.56211V5.6623H5.37793V7.6623ZM4.56211 6.6623V7.42305H6.56211V6.6623H4.56211ZM5.56211 8.42305H5.74629V6.42305H5.56211V8.42305ZM6.74629 7.42305V6.6623H4.74629V7.42305H6.74629ZM5.74629 7.6623H5.93047V5.6623H5.74629V7.6623ZM4.93047 6.6623V7.42305H6.93047V6.6623H4.93047ZM5.93047 8.42305H6.11465V6.42305H5.93047V8.42305ZM7.11465 7.42305V6.6623H5.11465V7.42305H7.11465ZM6.11465 7.6623H6.29883V5.6623H6.11465V7.6623ZM5.29883 6.6623V7.61523H7.29883V6.6623H5.29883ZM6.29883 6.61523H5.36992V8.61523H6.29883V6.61523ZM6.36992 7.61523V7.23887H4.36992V7.61523H6.36992ZM5.36992 6.23887H4.80937V8.23887H5.36992V6.23887ZM3.80937 7.23887V7.43105H5.80937V7.23887H3.80937ZM4.80937 8.43105H5.18574V6.43105H4.80937V8.43105ZM4.18574 7.43105V7.60723H6.18574V7.43105H4.18574ZM5.18574 8.60723H5.19375V6.60723H5.18574V8.60723Z" fill="white" mask="url(#path-13-inside-2_23916_2210)"/>
<mask id="path-15-inside-3_23916_2210" fill="white">
<path d="M6.49902 7.60723H6.6832V7.23086H7.24375V7.60723H8.17266V7.03867H7.61211V7.23086H7.98848V7.42305H7.42793V7.03867H6.49902V7.60723ZM6.87539 7.60723H7.05957V7.41504H6.87539V7.60723ZM6.49902 6.84648H8.91738V6.6543H6.49902V6.84648ZM8.92539 7.60723H8.36484V7.03867H9.10957V6.6623H9.29375V7.42305H9.47793V6.6623H9.66211V7.42305H9.84629V6.6623H10.0305V7.61523H9.10156V7.23887H8.54102V7.43105H8.91738V7.60723H8.92539Z"/>
</mask>
<path d="M6.49902 7.60723H6.6832V7.23086H7.24375V7.60723H8.17266V7.03867H7.61211V7.23086H7.98848V7.42305H7.42793V7.03867H6.49902V7.60723ZM6.87539 7.60723H7.05957V7.41504H6.87539V7.60723ZM6.49902 6.84648H8.91738V6.6543H6.49902V6.84648ZM8.92539 7.60723H8.36484V7.03867H9.10957V6.6623H9.29375V7.42305H9.47793V6.6623H9.66211V7.42305H9.84629V6.6623H10.0305V7.61523H9.10156V7.23887H8.54102V7.43105H8.91738V7.60723H8.92539Z" fill="white"/>
<path d="M6.49902 7.60723H5.49902V8.60723H6.49902V7.60723ZM6.6832 7.60723V8.60723H7.6832V7.60723H6.6832ZM6.6832 7.23086V6.23086H5.6832V7.23086H6.6832ZM7.24375 7.23086H8.24375V6.23086H7.24375V7.23086ZM7.24375 7.60723H6.24375V8.60723H7.24375V7.60723ZM8.17266 7.60723V8.60723H9.17266V7.60723H8.17266ZM8.17266 7.03867H9.17266V6.03867H8.17266V7.03867ZM7.61211 7.03867V6.03867H6.61211V7.03867H7.61211ZM7.61211 7.23086H6.61211V8.23086H7.61211V7.23086ZM7.98848 7.23086H8.98848V6.23086H7.98848V7.23086ZM7.98848 7.42305V8.42305H8.98848V7.42305H7.98848ZM7.42793 7.42305H6.42793V8.42305H7.42793V7.42305ZM7.42793 7.03867H8.42793V6.03867H7.42793V7.03867ZM6.49902 7.03867V6.03867H5.49902V7.03867H6.49902ZM6.87539 7.60723H5.87539V8.60723H6.87539V7.60723ZM7.05957 7.60723V8.60723H8.05957V7.60723H7.05957ZM7.05957 7.41504H8.05957V6.41504H7.05957V7.41504ZM6.87539 7.41504V6.41504H5.87539V7.41504H6.87539ZM6.49902 6.84648H5.49902V7.84648H6.49902V6.84648ZM8.91738 6.84648V7.84648H9.91738V6.84648H8.91738ZM8.91738 6.6543H9.91738V5.6543H8.91738V6.6543ZM6.49902 6.6543V5.6543H5.49902V6.6543H6.49902ZM8.36484 7.60723H7.36484V8.60723H8.36484V7.60723ZM8.36484 7.03867V6.03867H7.36484V7.03867H8.36484ZM9.10957 7.03867V8.03867H10.1096V7.03867H9.10957ZM9.10957 6.6623V5.6623H8.10957V6.6623H9.10957ZM9.29375 6.6623H10.2937V5.6623H9.29375V6.6623ZM9.29375 7.42305H8.29375V8.42305H9.29375V7.42305ZM9.47793 7.42305V8.42305H10.4779V7.42305H9.47793ZM9.47793 6.6623V5.6623H8.47793V6.6623H9.47793ZM9.66211 6.6623H10.6621V5.6623H9.66211V6.6623ZM9.66211 7.42305H8.66211V8.42305H9.66211V7.42305ZM9.84629 7.42305V8.42305H10.8463V7.42305H9.84629ZM9.84629 6.6623V5.6623H8.84629V6.6623H9.84629ZM10.0305 6.6623H11.0305V5.6623H10.0305V6.6623ZM10.0305 7.61523V8.61523H11.0305V7.61523H10.0305ZM9.10156 7.61523H8.10156V8.61523H9.10156V7.61523ZM9.10156 7.23887H10.1016V6.23887H9.10156V7.23887ZM8.54102 7.23887V6.23887H7.54102V7.23887H8.54102ZM8.54102 7.43105H7.54102V8.43105H8.54102V7.43105ZM8.91738 7.43105H9.91738V6.43105H8.91738V7.43105ZM8.91738 7.60723H7.91738V8.60723H8.91738V7.60723ZM6.49902 8.60723H6.6832V6.60723H6.49902V8.60723ZM7.6832 7.60723V7.23086H5.6832V7.60723H7.6832ZM6.6832 8.23086H7.24375V6.23086H6.6832V8.23086ZM6.24375 7.23086V7.60723H8.24375V7.23086H6.24375ZM7.24375 8.60723H8.17266V6.60723H7.24375V8.60723ZM9.17266 7.60723V7.03867H7.17266V7.60723H9.17266ZM8.17266 6.03867H7.61211V8.03867H8.17266V6.03867ZM6.61211 7.03867V7.23086H8.61211V7.03867H6.61211ZM7.61211 8.23086H7.98848V6.23086H7.61211V8.23086ZM6.98848 7.23086V7.42305H8.98848V7.23086H6.98848ZM7.98848 6.42305H7.42793V8.42305H7.98848V6.42305ZM8.42793 7.42305V7.03867H6.42793V7.42305H8.42793ZM7.42793 6.03867H6.49902V8.03867H7.42793V6.03867ZM5.49902 7.03867V7.60723H7.49902V7.03867H5.49902ZM6.87539 8.60723H7.05957V6.60723H6.87539V8.60723ZM8.05957 7.60723V7.41504H6.05957V7.60723H8.05957ZM7.05957 6.41504H6.87539V8.41504H7.05957V6.41504ZM5.87539 7.41504V7.60723H7.87539V7.41504H5.87539ZM6.49902 7.84648H8.91738V5.84648H6.49902V7.84648ZM9.91738 6.84648V6.6543H7.91738V6.84648H9.91738ZM8.91738 5.6543H6.49902V7.6543H8.91738V5.6543ZM5.49902 6.6543V6.84648H7.49902V6.6543H5.49902ZM8.92539 6.60723H8.36484V8.60723H8.92539V6.60723ZM9.36484 7.60723V7.03867H7.36484V7.60723H9.36484ZM8.36484 8.03867H9.10957V6.03867H8.36484V8.03867ZM10.1096 7.03867V6.6623H8.10957V7.03867H10.1096ZM9.10957 7.6623H9.29375V5.6623H9.10957V7.6623ZM8.29375 6.6623V7.42305H10.2937V6.6623H8.29375ZM9.29375 8.42305H9.47793V6.42305H9.29375V8.42305ZM10.4779 7.42305V6.6623H8.47793V7.42305H10.4779ZM9.47793 7.6623H9.66211V5.6623H9.47793V7.6623ZM8.66211 6.6623V7.42305H10.6621V6.6623H8.66211ZM9.66211 8.42305H9.84629V6.42305H9.66211V8.42305ZM10.8463 7.42305V6.6623H8.84629V7.42305H10.8463ZM9.84629 7.6623H10.0305V5.6623H9.84629V7.6623ZM9.03047 6.6623V7.61523H11.0305V6.6623H9.03047ZM10.0305 6.61523H9.10156V8.61523H10.0305V6.61523ZM10.1016 7.61523V7.23887H8.10156V7.61523H10.1016ZM9.10156 6.23887H8.54102V8.23887H9.10156V6.23887ZM7.54102 7.23887V7.43105H9.54102V7.23887H7.54102ZM8.54102 8.43105H8.91738V6.43105H8.54102V8.43105ZM7.91738 7.43105V7.60723H9.91738V7.43105H7.91738ZM8.91738 8.60723H8.92539V6.60723H8.91738V8.60723Z" fill="white" mask="url(#path-15-inside-3_23916_2210)"/>
<mask id="path-17-inside-4_23916_2210" fill="white">
<path d="M10.2305 7.60723H10.4146V7.23086H10.9752V7.60723H11.9041V7.03867H11.3436V7.23086H11.7199V7.42305H11.1594V7.03867H10.2305V7.60723ZM10.6068 7.60723H10.791V7.41504H10.6068V7.60723ZM10.2305 6.84648H12.6568V6.6543H10.2305V6.84648ZM12.6488 7.60723H12.0883V7.03867H12.833V6.6623H13.0172V7.42305H13.2014V6.6623H13.3855V7.42305H13.5697V6.6623H13.7539V7.61523H12.825V7.23887H12.2645V7.43105H12.6408V7.60723H12.6488Z"/>
</mask>
<path d="M10.2305 7.60723H10.4146V7.23086H10.9752V7.60723H11.9041V7.03867H11.3436V7.23086H11.7199V7.42305H11.1594V7.03867H10.2305V7.60723ZM10.6068 7.60723H10.791V7.41504H10.6068V7.60723ZM10.2305 6.84648H12.6568V6.6543H10.2305V6.84648ZM12.6488 7.60723H12.0883V7.03867H12.833V6.6623H13.0172V7.42305H13.2014V6.6623H13.3855V7.42305H13.5697V6.6623H13.7539V7.61523H12.825V7.23887H12.2645V7.43105H12.6408V7.60723H12.6488Z" fill="white"/>
<path d="M10.2305 7.60723H9.23047V8.60723H10.2305V7.60723ZM10.4146 7.60723V8.60723H11.4146V7.60723H10.4146ZM10.4146 7.23086V6.23086H9.41465V7.23086H10.4146ZM10.9752 7.23086H11.9752V6.23086H10.9752V7.23086ZM10.9752 7.60723H9.9752V8.60723H10.9752V7.60723ZM11.9041 7.60723V8.60723H12.9041V7.60723H11.9041ZM11.9041 7.03867H12.9041V6.03867H11.9041V7.03867ZM11.3436 7.03867V6.03867H10.3436V7.03867H11.3436ZM11.3436 7.23086H10.3436V8.23086H11.3436V7.23086ZM11.7199 7.23086H12.7199V6.23086H11.7199V7.23086ZM11.7199 7.42305V8.42305H12.7199V7.42305H11.7199ZM11.1594 7.42305H10.1594V8.42305H11.1594V7.42305ZM11.1594 7.03867H12.1594V6.03867H11.1594V7.03867ZM10.2305 7.03867V6.03867H9.23047V7.03867H10.2305ZM10.6068 7.60723H9.60684V8.60723H10.6068V7.60723ZM10.791 7.60723V8.60723H11.791V7.60723H10.791ZM10.791 7.41504H11.791V6.41504H10.791V7.41504ZM10.6068 7.41504V6.41504H9.60684V7.41504H10.6068ZM12.6568 6.84648V7.84648H13.6568V6.84648H12.6568ZM12.6568 6.6543H13.6568V5.6543H12.6568V6.6543ZM10.2305 6.6543V5.6543H9.23047V6.6543H10.2305ZM12.0883 7.60723H11.0883V8.60723H12.0883V7.60723ZM12.0883 7.03867V6.03867H11.0883V7.03867H12.0883ZM12.833 7.03867V8.03867H13.833V7.03867H12.833ZM12.833 6.6623V5.6623H11.833V6.6623H12.833ZM13.0172 6.6623H14.0172V5.6623H13.0172V6.6623ZM13.0172 7.42305H12.0172V8.42305H13.0172V7.42305ZM13.2014 7.42305V8.42305H14.2014V7.42305H13.2014ZM13.2014 6.6623V5.6623H12.2014V6.6623H13.2014ZM13.3855 6.6623H14.3855V5.6623H13.3855V6.6623ZM13.3855 7.42305H12.3855V8.42305H13.3855V7.42305ZM13.5697 7.42305V8.42305H14.5697V7.42305H13.5697ZM13.5697 6.6623V5.6623H12.5697V6.6623H13.5697ZM13.7539 6.6623H14.7539V5.6623H13.7539V6.6623ZM13.7539 7.61523V8.61523H14.7539V7.61523H13.7539ZM12.825 7.61523H11.825V8.61523H12.825V7.61523ZM12.825 7.23887H13.825V6.23887H12.825V7.23887ZM12.2645 7.23887V6.23887H11.2645V7.23887H12.2645ZM12.2645 7.43105H11.2645V8.43105H12.2645V7.43105ZM12.6408 7.43105H13.6408V6.43105H12.6408V7.43105ZM12.6408 7.60723H11.6408V8.60723H12.6408V7.60723ZM10.2305 8.60723H10.4146V6.60723H10.2305V8.60723ZM11.4146 7.60723V7.23086H9.41465V7.60723H11.4146ZM10.4146 8.23086H10.9752V6.23086H10.4146V8.23086ZM9.9752 7.23086V7.60723H11.9752V7.23086H9.9752ZM10.9752 8.60723H11.9041V6.60723H10.9752V8.60723ZM12.9041 7.60723V7.03867H10.9041V7.60723H12.9041ZM11.9041 6.03867H11.3436V8.03867H11.9041V6.03867ZM10.3436 7.03867V7.23086H12.3436V7.03867H10.3436ZM11.3436 8.23086H11.7199V6.23086H11.3436V8.23086ZM10.7199 7.23086V7.42305H12.7199V7.23086H10.7199ZM11.7199 6.42305H11.1594V8.42305H11.7199V6.42305ZM12.1594 7.42305V7.03867H10.1594V7.42305H12.1594ZM11.1594 6.03867H10.2305V8.03867H11.1594V6.03867ZM9.23047 7.03867V7.60723H11.2305V7.03867H9.23047ZM10.6068 8.60723H10.791V6.60723H10.6068V8.60723ZM11.791 7.60723V7.41504H9.79102V7.60723H11.791ZM10.791 6.41504H10.6068V8.41504H10.791V6.41504ZM9.60684 7.41504V7.60723H11.6068V7.41504H9.60684ZM10.2305 7.84648H12.6568V5.84648H10.2305V7.84648ZM13.6568 6.84648V6.6543H11.6568V6.84648H13.6568ZM12.6568 5.6543H10.2305V7.6543H12.6568V5.6543ZM9.23047 6.6543V6.84648H11.2305V6.6543H9.23047ZM12.6488 6.60723H12.0883V8.60723H12.6488V6.60723ZM13.0883 7.60723V7.03867H11.0883V7.60723H13.0883ZM12.0883 8.03867H12.833V6.03867H12.0883V8.03867ZM13.833 7.03867V6.6623H11.833V7.03867H13.833ZM12.833 7.6623H13.0172V5.6623H12.833V7.6623ZM12.0172 6.6623V7.42305H14.0172V6.6623H12.0172ZM13.0172 8.42305H13.2014V6.42305H13.0172V8.42305ZM14.2014 7.42305V6.6623H12.2014V7.42305H14.2014ZM13.2014 7.6623H13.3855V5.6623H13.2014V7.6623ZM12.3855 6.6623V7.42305H14.3855V6.6623H12.3855ZM13.3855 8.42305H13.5697V6.42305H13.3855V8.42305ZM14.5697 7.42305V6.6623H12.5697V7.42305H14.5697ZM13.5697 7.6623H13.7539V5.6623H13.5697V7.6623ZM12.7539 6.6623V7.61523H14.7539V6.6623H12.7539ZM13.7539 6.61523H12.825V8.61523H13.7539V6.61523ZM13.825 7.61523V7.23887H11.825V7.61523H13.825ZM12.825 6.23887H12.2645V8.23887H12.825V6.23887ZM11.2645 7.23887V7.43105H13.2645V7.23887H11.2645ZM12.2645 8.43105H12.6408V6.43105H12.2645V8.43105ZM11.6408 7.43105V7.60723H13.6408V7.43105H11.6408ZM12.6408 8.60723H12.6488V6.60723H12.6408V8.60723Z" fill="white" mask="url(#path-17-inside-4_23916_2210)"/>
<mask id="path-19-inside-5_23916_2210" fill="white">
<path d="M13.9541 7.60723H14.1383V7.23086H14.6988V7.60723H15.6277V7.03867H15.0672V7.23086H15.4436V7.42305H14.883V7.03867H13.9541V7.60723ZM14.3305 7.60723H14.5146V7.41504H14.3305V7.60723ZM13.9541 6.84648H16.3805V6.6543H13.9541V6.84648ZM16.3805 7.60723H15.8199V7.03867H16.5646V6.6623H16.7488V7.42305H16.933V6.6623H17.1172V7.42305H17.3014V6.6623H17.4855V7.61523H16.5646V7.23887H16.0041V7.43105H16.3805V7.60723Z"/>
</mask>
<path d="M13.9541 7.60723H14.1383V7.23086H14.6988V7.60723H15.6277V7.03867H15.0672V7.23086H15.4436V7.42305H14.883V7.03867H13.9541V7.60723ZM14.3305 7.60723H14.5146V7.41504H14.3305V7.60723ZM13.9541 6.84648H16.3805V6.6543H13.9541V6.84648ZM16.3805 7.60723H15.8199V7.03867H16.5646V6.6623H16.7488V7.42305H16.933V6.6623H17.1172V7.42305H17.3014V6.6623H17.4855V7.61523H16.5646V7.23887H16.0041V7.43105H16.3805V7.60723Z" fill="white"/>
<path d="M13.9541 7.60723H12.9541V8.60723H13.9541V7.60723ZM14.1383 7.60723V8.60723H15.1383V7.60723H14.1383ZM14.1383 7.23086V6.23086H13.1383V7.23086H14.1383ZM14.6988 7.23086H15.6988V6.23086H14.6988V7.23086ZM14.6988 7.60723H13.6988V8.60723H14.6988V7.60723ZM15.6277 7.60723V8.60723H16.6277V7.60723H15.6277ZM15.6277 7.03867H16.6277V6.03867H15.6277V7.03867ZM15.0672 7.03867V6.03867H14.0672V7.03867H15.0672ZM15.0672 7.23086H14.0672V8.23086H15.0672V7.23086ZM15.4436 7.23086H16.4436V6.23086H15.4436V7.23086ZM15.4436 7.42305V8.42305H16.4436V7.42305H15.4436ZM14.883 7.42305H13.883V8.42305H14.883V7.42305ZM14.883 7.03867H15.883V6.03867H14.883V7.03867ZM13.9541 7.03867V6.03867H12.9541V7.03867H13.9541ZM14.3305 7.60723H13.3305V8.60723H14.3305V7.60723ZM14.5146 7.60723V8.60723H15.5146V7.60723H14.5146ZM14.5146 7.41504H15.5146V6.41504H14.5146V7.41504ZM14.3305 7.41504V6.41504H13.3305V7.41504H14.3305ZM13.9541 6.84648H12.9541V7.84648H13.9541V6.84648ZM16.3805 6.84648V7.84648H17.3805V6.84648H16.3805ZM16.3805 6.6543H17.3805V5.6543H16.3805V6.6543ZM13.9541 6.6543V5.6543H12.9541V6.6543H13.9541ZM16.3805 7.60723V8.60723H17.3805V7.60723H16.3805ZM15.8199 7.60723H14.8199V8.60723H15.8199V7.60723ZM15.8199 7.03867V6.03867H14.8199V7.03867H15.8199ZM16.5646 7.03867V8.03867H17.5646V7.03867H16.5646ZM16.5646 6.6623V5.6623H15.5646V6.6623H16.5646ZM16.7488 6.6623H17.7488V5.6623H16.7488V6.6623ZM16.7488 7.42305H15.7488V8.42305H16.7488V7.42305ZM16.933 7.42305V8.42305H17.933V7.42305H16.933ZM16.933 6.6623V5.6623H15.933V6.6623H16.933ZM17.1172 6.6623H18.1172V5.6623H17.1172V6.6623ZM17.1172 7.42305H16.1172V8.42305H17.1172V7.42305ZM17.3014 7.42305V8.42305H18.3014V7.42305H17.3014ZM17.3014 6.6623V5.6623H16.3014V6.6623H17.3014ZM17.4855 6.6623H18.4855V5.6623H17.4855V6.6623ZM17.4855 7.61523V8.61523H18.4855V7.61523H17.4855ZM16.5646 7.61523H15.5646V8.61523H16.5646V7.61523ZM16.5646 7.23887H17.5646V6.23887H16.5646V7.23887ZM16.0041 7.23887V6.23887H15.0041V7.23887H16.0041ZM16.0041 7.43105H15.0041V8.43105H16.0041V7.43105ZM16.3805 7.43105H17.3805V6.43105H16.3805V7.43105ZM13.9541 8.60723H14.1383V6.60723H13.9541V8.60723ZM15.1383 7.60723V7.23086H13.1383V7.60723H15.1383ZM14.1383 8.23086H14.6988V6.23086H14.1383V8.23086ZM13.6988 7.23086V7.60723H15.6988V7.23086H13.6988ZM14.6988 8.60723H15.6277V6.60723H14.6988V8.60723ZM16.6277 7.60723V7.03867H14.6277V7.60723H16.6277ZM15.6277 6.03867H15.0672V8.03867H15.6277V6.03867ZM14.0672 7.03867V7.23086H16.0672V7.03867H14.0672ZM15.0672 8.23086H15.4436V6.23086H15.0672V8.23086ZM14.4436 7.23086V7.42305H16.4436V7.23086H14.4436ZM15.4436 6.42305H14.883V8.42305H15.4436V6.42305ZM15.883 7.42305V7.03867H13.883V7.42305H15.883ZM14.883 6.03867H13.9541V8.03867H14.883V6.03867ZM12.9541 7.03867V7.60723H14.9541V7.03867H12.9541ZM14.3305 8.60723H14.5146V6.60723H14.3305V8.60723ZM15.5146 7.60723V7.41504H13.5146V7.60723H15.5146ZM14.5146 6.41504H14.3305V8.41504H14.5146V6.41504ZM13.3305 7.41504V7.60723H15.3305V7.41504H13.3305ZM13.9541 7.84648H16.3805V5.84648H13.9541V7.84648ZM17.3805 6.84648V6.6543H15.3805V6.84648H17.3805ZM16.3805 5.6543H13.9541V7.6543H16.3805V5.6543ZM12.9541 6.6543V6.84648H14.9541V6.6543H12.9541ZM16.3805 6.60723H15.8199V8.60723H16.3805V6.60723ZM16.8199 7.60723V7.03867H14.8199V7.60723H16.8199ZM15.8199 8.03867H16.5646V6.03867H15.8199V8.03867ZM17.5646 7.03867V6.6623H15.5646V7.03867H17.5646ZM16.5646 7.6623H16.7488V5.6623H16.5646V7.6623ZM15.7488 6.6623V7.42305H17.7488V6.6623H15.7488ZM16.7488 8.42305H16.933V6.42305H16.7488V8.42305ZM17.933 7.42305V6.6623H15.933V7.42305H17.933ZM16.933 7.6623H17.1172V5.6623H16.933V7.6623ZM16.1172 6.6623V7.42305H18.1172V6.6623H16.1172ZM17.1172 8.42305H17.3014V6.42305H17.1172V8.42305ZM18.3014 7.42305V6.6623H16.3014V7.42305H18.3014ZM17.3014 7.6623H17.4855V5.6623H17.3014V7.6623ZM16.4855 6.6623V7.61523H18.4855V6.6623H16.4855ZM17.4855 6.61523H16.5646V8.61523H17.4855V6.61523ZM17.5646 7.61523V7.23887H15.5646V7.61523H17.5646ZM16.5646 6.23887H16.0041V8.23887H16.5646V6.23887ZM15.0041 7.23887V7.43105H17.0041V7.23887H15.0041ZM16.0041 8.43105H16.3805V6.43105H16.0041V8.43105ZM15.3805 7.43105V7.60723H17.3805V7.43105H15.3805Z" fill="white" mask="url(#path-19-inside-5_23916_2210)"/>
<mask id="path-21-inside-6_23916_2210" fill="white">
<path d="M17.6855 7.60723H17.8697V7.23086H18.4303V7.60723H19.3592V7.03867H18.7986V7.23086H19.175V7.42305H18.6145V7.03867H17.6855V7.60723ZM18.0539 7.60723H18.2381V7.41504H18.0539V7.60723ZM17.6855 6.84648H20.1119V6.6543H17.6855V6.84648ZM20.1039 7.60723H19.5434V7.03867H20.2881V6.6623H20.4723V7.42305H20.6564V6.6623H20.8406V7.42305H21.0248V6.6623H21.209V7.61523H20.2801V7.23887H19.7195V7.43105H20.0959V7.60723H20.1039Z"/>
</mask>
<path d="M17.6855 7.60723H17.8697V7.23086H18.4303V7.60723H19.3592V7.03867H18.7986V7.23086H19.175V7.42305H18.6145V7.03867H17.6855V7.60723ZM18.0539 7.60723H18.2381V7.41504H18.0539V7.60723ZM17.6855 6.84648H20.1119V6.6543H17.6855V6.84648ZM20.1039 7.60723H19.5434V7.03867H20.2881V6.6623H20.4723V7.42305H20.6564V6.6623H20.8406V7.42305H21.0248V6.6623H21.209V7.61523H20.2801V7.23887H19.7195V7.43105H20.0959V7.60723H20.1039Z" fill="white"/>
<path d="M17.6855 7.60723H16.6855V8.60723H17.6855V7.60723ZM17.8697 7.60723V8.60723H18.8697V7.60723H17.8697ZM17.8697 7.23086V6.23086H16.8697V7.23086H17.8697ZM18.4303 7.23086H19.4303V6.23086H18.4303V7.23086ZM18.4303 7.60723H17.4303V8.60723H18.4303V7.60723ZM19.3592 7.60723V8.60723H20.3592V7.60723H19.3592ZM19.3592 7.03867H20.3592V6.03867H19.3592V7.03867ZM18.7986 7.03867V6.03867H17.7986V7.03867H18.7986ZM18.7986 7.23086H17.7986V8.23086H18.7986V7.23086ZM19.175 7.23086H20.175V6.23086H19.175V7.23086ZM19.175 7.42305V8.42305H20.175V7.42305H19.175ZM18.6145 7.42305H17.6145V8.42305H18.6145V7.42305ZM18.6145 7.03867H19.6145V6.03867H18.6145V7.03867ZM17.6855 7.03867V6.03867H16.6855V7.03867H17.6855ZM18.0539 7.60723H17.0539V8.60723H18.0539V7.60723ZM18.2381 7.60723V8.60723H19.2381V7.60723H18.2381ZM18.2381 7.41504H19.2381V6.41504H18.2381V7.41504ZM18.0539 7.41504V6.41504H17.0539V7.41504H18.0539ZM17.6855 6.84648H16.6855V7.84648H17.6855V6.84648ZM20.1119 6.84648V7.84648H21.1119V6.84648H20.1119ZM20.1119 6.6543H21.1119V5.6543H20.1119V6.6543ZM17.6855 6.6543V5.6543H16.6855V6.6543H17.6855ZM19.5434 7.60723H18.5434V8.60723H19.5434V7.60723ZM19.5434 7.03867V6.03867H18.5434V7.03867H19.5434ZM20.2881 7.03867V8.03867H21.2881V7.03867H20.2881ZM20.2881 6.6623V5.6623H19.2881V6.6623H20.2881ZM20.4723 6.6623H21.4723V5.6623H20.4723V6.6623ZM20.4723 7.42305H19.4723V8.42305H20.4723V7.42305ZM20.6564 7.42305V8.42305H21.6564V7.42305H20.6564ZM20.6564 6.6623V5.6623H19.6564V6.6623H20.6564ZM20.8406 6.6623H21.8406V5.6623H20.8406V6.6623ZM20.8406 7.42305H19.8406V8.42305H20.8406V7.42305ZM21.0248 7.42305V8.42305H22.0248V7.42305H21.0248ZM21.0248 6.6623V5.6623H20.0248V6.6623H21.0248ZM21.209 6.6623H22.209V5.6623H21.209V6.6623ZM21.209 7.61523V8.61523H22.209V7.61523H21.209ZM20.2801 7.61523H19.2801V8.61523H20.2801V7.61523ZM20.2801 7.23887H21.2801V6.23887H20.2801V7.23887ZM19.7195 7.23887V6.23887H18.7195V7.23887H19.7195ZM19.7195 7.43105H18.7195V8.43105H19.7195V7.43105ZM20.0959 7.43105H21.0959V6.43105H20.0959V7.43105ZM20.0959 7.60723H19.0959V8.60723H20.0959V7.60723ZM17.6855 8.60723H17.8697V6.60723H17.6855V8.60723ZM18.8697 7.60723V7.23086H16.8697V7.60723H18.8697ZM17.8697 8.23086H18.4303V6.23086H17.8697V8.23086ZM17.4303 7.23086V7.60723H19.4303V7.23086H17.4303ZM18.4303 8.60723H19.3592V6.60723H18.4303V8.60723ZM20.3592 7.60723V7.03867H18.3592V7.60723H20.3592ZM19.3592 6.03867H18.7986V8.03867H19.3592V6.03867ZM17.7986 7.03867V7.23086H19.7986V7.03867H17.7986ZM18.7986 8.23086H19.175V6.23086H18.7986V8.23086ZM18.175 7.23086V7.42305H20.175V7.23086H18.175ZM19.175 6.42305H18.6145V8.42305H19.175V6.42305ZM19.6145 7.42305V7.03867H17.6145V7.42305H19.6145ZM18.6145 6.03867H17.6855V8.03867H18.6145V6.03867ZM16.6855 7.03867V7.60723H18.6855V7.03867H16.6855ZM18.0539 8.60723H18.2381V6.60723H18.0539V8.60723ZM19.2381 7.60723V7.41504H17.2381V7.60723H19.2381ZM18.2381 6.41504H18.0539V8.41504H18.2381V6.41504ZM17.0539 7.41504V7.60723H19.0539V7.41504H17.0539ZM17.6855 7.84648H20.1119V5.84648H17.6855V7.84648ZM21.1119 6.84648V6.6543H19.1119V6.84648H21.1119ZM20.1119 5.6543H17.6855V7.6543H20.1119V5.6543ZM16.6855 6.6543V6.84648H18.6855V6.6543H16.6855ZM20.1039 6.60723H19.5434V8.60723H20.1039V6.60723ZM20.5434 7.60723V7.03867H18.5434V7.60723H20.5434ZM19.5434 8.03867H20.2881V6.03867H19.5434V8.03867ZM21.2881 7.03867V6.6623H19.2881V7.03867H21.2881ZM20.2881 7.6623H20.4723V5.6623H20.2881V7.6623ZM19.4723 6.6623V7.42305H21.4723V6.6623H19.4723ZM20.4723 8.42305H20.6564V6.42305H20.4723V8.42305ZM21.6564 7.42305V6.6623H19.6564V7.42305H21.6564ZM20.6564 7.6623H20.8406V5.6623H20.6564V7.6623ZM19.8406 6.6623V7.42305H21.8406V6.6623H19.8406ZM20.8406 8.42305H21.0248V6.42305H20.8406V8.42305ZM22.0248 7.42305V6.6623H20.0248V7.42305H22.0248ZM21.0248 7.6623H21.209V5.6623H21.0248V7.6623ZM20.209 6.6623V7.61523H22.209V6.6623H20.209ZM21.209 6.61523H20.2801V8.61523H21.209V6.61523ZM21.2801 7.61523V7.23887H19.2801V7.61523H21.2801ZM20.2801 6.23887H19.7195V8.23887H20.2801V6.23887ZM18.7195 7.23887V7.43105H20.7195V7.23887H18.7195ZM19.7195 8.43105H20.0959V6.43105H19.7195V8.43105ZM19.0959 7.43105V7.60723H21.0959V7.43105H19.0959ZM20.0959 8.60723H20.1039V6.60723H20.0959V8.60723Z" fill="white" mask="url(#path-21-inside-6_23916_2210)"/>
<mask id="path-23-inside-7_23916_2210" fill="white">
<path d="M21.4092 7.60723H21.5934V7.23086H22.1539V7.60723H23.0828V7.03867H22.5223V7.23086H22.8986V7.42305H22.3381V7.03867H21.4092V7.60723ZM21.7855 7.60723H21.9697V7.41504H21.7855V7.60723ZM21.4092 6.84648H23.8275V6.6543H21.4092V6.84648ZM23.8355 7.60723H23.275V7.03867H24.0197V6.6623H24.2039V7.42305H24.3881V6.6623H24.5723V7.42305H24.7564V6.6623H24.9406V7.61523H24.0117V7.23887H23.4512V7.43105H23.8275V7.60723H23.8355Z"/>
</mask>
<path d="M21.4092 7.60723H21.5934V7.23086H22.1539V7.60723H23.0828V7.03867H22.5223V7.23086H22.8986V7.42305H22.3381V7.03867H21.4092V7.60723ZM21.7855 7.60723H21.9697V7.41504H21.7855V7.60723ZM21.4092 6.84648H23.8275V6.6543H21.4092V6.84648ZM23.8355 7.60723H23.275V7.03867H24.0197V6.6623H24.2039V7.42305H24.3881V6.6623H24.5723V7.42305H24.7564V6.6623H24.9406V7.61523H24.0117V7.23887H23.4512V7.43105H23.8275V7.60723H23.8355Z" fill="white"/>
<path d="M21.4092 7.60723H20.4092V8.60723H21.4092V7.60723ZM21.5934 7.60723V8.60723H22.5934V7.60723H21.5934ZM21.5934 7.23086V6.23086H20.5934V7.23086H21.5934ZM22.1539 7.23086H23.1539V6.23086H22.1539V7.23086ZM22.1539 7.60723H21.1539V8.60723H22.1539V7.60723ZM23.0828 7.60723V8.60723H24.0828V7.60723H23.0828ZM23.0828 7.03867H24.0828V6.03867H23.0828V7.03867ZM22.5223 7.03867V6.03867H21.5223V7.03867H22.5223ZM22.5223 7.23086H21.5223V8.23086H22.5223V7.23086ZM22.8986 7.23086H23.8986V6.23086H22.8986V7.23086ZM22.8986 7.42305V8.42305H23.8986V7.42305H22.8986ZM22.3381 7.42305H21.3381V8.42305H22.3381V7.42305ZM22.3381 7.03867H23.3381V6.03867H22.3381V7.03867ZM21.4092 7.03867V6.03867H20.4092V7.03867H21.4092ZM21.7855 7.60723H20.7855V8.60723H21.7855V7.60723ZM21.9697 7.60723V8.60723H22.9697V7.60723H21.9697ZM21.9697 7.41504H22.9697V6.41504H21.9697V7.41504ZM21.7855 7.41504V6.41504H20.7855V7.41504H21.7855ZM21.4092 6.84648H20.4092V7.84648H21.4092V6.84648ZM23.8275 6.84648V7.84648H24.8275V6.84648H23.8275ZM23.8275 6.6543H24.8275V5.6543H23.8275V6.6543ZM21.4092 6.6543V5.6543H20.4092V6.6543H21.4092ZM23.275 7.60723H22.275V8.60723H23.275V7.60723ZM23.275 7.03867V6.03867H22.275V7.03867H23.275ZM24.0197 7.03867V8.03867H25.0197V7.03867H24.0197ZM24.0197 6.6623V5.6623H23.0197V6.6623H24.0197ZM24.2039 6.6623H25.2039V5.6623H24.2039V6.6623ZM24.2039 7.42305H23.2039V8.42305H24.2039V7.42305ZM24.3881 7.42305V8.42305H25.3881V7.42305H24.3881ZM24.3881 6.6623V5.6623H23.3881V6.6623H24.3881ZM24.5723 6.6623H25.5723V5.6623H24.5723V6.6623ZM24.5723 7.42305H23.5723V8.42305H24.5723V7.42305ZM24.7564 7.42305V8.42305H25.7564V7.42305H24.7564ZM24.7564 6.6623V5.6623H23.7564V6.6623H24.7564ZM24.9406 6.6623H25.9406V5.6623H24.9406V6.6623ZM24.9406 7.61523V8.61523H25.9406V7.61523H24.9406ZM24.0117 7.61523H23.0117V8.61523H24.0117V7.61523ZM24.0117 7.23887H25.0117V6.23887H24.0117V7.23887ZM23.4512 7.23887V6.23887H22.4512V7.23887H23.4512ZM23.4512 7.43105H22.4512V8.43105H23.4512V7.43105ZM23.8275 7.43105H24.8275V6.43105H23.8275V7.43105ZM23.8275 7.60723H22.8275V8.60723H23.8275V7.60723ZM21.4092 8.60723H21.5934V6.60723H21.4092V8.60723ZM22.5934 7.60723V7.23086H20.5934V7.60723H22.5934ZM21.5934 8.23086H22.1539V6.23086H21.5934V8.23086ZM21.1539 7.23086V7.60723H23.1539V7.23086H21.1539ZM22.1539 8.60723H23.0828V6.60723H22.1539V8.60723ZM24.0828 7.60723V7.03867H22.0828V7.60723H24.0828ZM23.0828 6.03867H22.5223V8.03867H23.0828V6.03867ZM21.5223 7.03867V7.23086H23.5223V7.03867H21.5223ZM22.5223 8.23086H22.8986V6.23086H22.5223V8.23086ZM21.8986 7.23086V7.42305H23.8986V7.23086H21.8986ZM22.8986 6.42305H22.3381V8.42305H22.8986V6.42305ZM23.3381 7.42305V7.03867H21.3381V7.42305H23.3381ZM22.3381 6.03867H21.4092V8.03867H22.3381V6.03867ZM20.4092 7.03867V7.60723H22.4092V7.03867H20.4092ZM21.7855 8.60723H21.9697V6.60723H21.7855V8.60723ZM22.9697 7.60723V7.41504H20.9697V7.60723H22.9697ZM21.9697 6.41504H21.7855V8.41504H21.9697V6.41504ZM20.7855 7.41504V7.60723H22.7855V7.41504H20.7855ZM21.4092 7.84648H23.8275V5.84648H21.4092V7.84648ZM24.8275 6.84648V6.6543H22.8275V6.84648H24.8275ZM23.8275 5.6543H21.4092V7.6543H23.8275V5.6543ZM20.4092 6.6543V6.84648H22.4092V6.6543H20.4092ZM23.8355 6.60723H23.275V8.60723H23.8355V6.60723ZM24.275 7.60723V7.03867H22.275V7.60723H24.275ZM23.275 8.03867H24.0197V6.03867H23.275V8.03867ZM25.0197 7.03867V6.6623H23.0197V7.03867H25.0197ZM24.0197 7.6623H24.2039V5.6623H24.0197V7.6623ZM23.2039 6.6623V7.42305H25.2039V6.6623H23.2039ZM24.2039 8.42305H24.3881V6.42305H24.2039V8.42305ZM25.3881 7.42305V6.6623H23.3881V7.42305H25.3881ZM24.3881 7.6623H24.5723V5.6623H24.3881V7.6623ZM23.5723 6.6623V7.42305H25.5723V6.6623H23.5723ZM24.5723 8.42305H24.7564V6.42305H24.5723V8.42305ZM25.7564 7.42305V6.6623H23.7564V7.42305H25.7564ZM24.7564 7.6623H24.9406V5.6623H24.7564V7.6623ZM23.9406 6.6623V7.61523H25.9406V6.6623H23.9406ZM24.9406 6.61523H24.0117V8.61523H24.9406V6.61523ZM25.0117 7.61523V7.23887H23.0117V7.61523H25.0117ZM24.0117 6.23887H23.4512V8.23887H24.0117V6.23887ZM22.4512 7.23887V7.43105H24.4512V7.23887H22.4512ZM23.4512 8.43105H23.8275V6.43105H23.4512V8.43105ZM22.8275 7.43105V7.60723H24.8275V7.43105H22.8275ZM23.8275 8.60723H23.8355V6.60723H23.8275V8.60723Z" fill="white" mask="url(#path-23-inside-7_23916_2210)"/>
<mask id="path-25-inside-8_23916_2210" fill="white">
<path d="M-0.948242 8.17539H0.72539V7.79102H-0.948242V8.17539ZM0.90957 8.17539H2.5832V7.79102H0.90957V8.17539Z"/>
</mask>
<path d="M-0.948242 8.17539H0.72539V7.79102H-0.948242V8.17539ZM0.90957 8.17539H2.5832V7.79102H0.90957V8.17539Z" fill="white"/>
<path d="M-0.948242 8.17539H-1.94824V9.17539H-0.948242V8.17539ZM0.72539 8.17539V9.17539H1.72539V8.17539H0.72539ZM0.72539 7.79102H1.72539V6.79102H0.72539V7.79102ZM-0.948242 7.79102V6.79102H-1.94824V7.79102H-0.948242ZM0.90957 8.17539H-0.0904298V9.17539H0.90957V8.17539ZM2.5832 8.17539V9.17539H3.5832V8.17539H2.5832ZM2.5832 7.79102H3.5832V6.79102H2.5832V7.79102ZM0.90957 7.79102V6.79102H-0.0904298V7.79102H0.90957ZM-0.948242 9.17539H0.72539V7.17539H-0.948242V9.17539ZM1.72539 8.17539V7.79102H-0.27461V8.17539H1.72539ZM0.72539 6.79102H-0.948242V8.79102H0.72539V6.79102ZM-1.94824 7.79102V8.17539H0.0517578V7.79102H-1.94824ZM0.90957 9.17539H2.5832V7.17539H0.90957V9.17539ZM3.5832 8.17539V7.79102H1.5832V8.17539H3.5832ZM2.5832 6.79102H0.90957V8.79102H2.5832V6.79102ZM-0.0904298 7.79102V8.17539H1.90957V7.79102H-0.0904298Z" fill="white" mask="url(#path-25-inside-8_23916_2210)"/>
<mask id="path-27-inside-9_23916_2210" fill="white">
<path d="M2.77539 8.17539H4.44902V7.79102H2.77539V8.17539ZM4.64121 8.17539H6.31484V7.79102H4.64121V8.17539Z"/>
</mask>
<path d="M2.77539 8.17539H4.44902V7.79102H2.77539V8.17539ZM4.64121 8.17539H6.31484V7.79102H4.64121V8.17539Z" fill="white"/>
<path d="M2.77539 8.17539H1.77539V9.17539H2.77539V8.17539ZM4.44902 8.17539V9.17539H5.44902V8.17539H4.44902ZM4.44902 7.79102H5.44902V6.79102H4.44902V7.79102ZM2.77539 7.79102V6.79102H1.77539V7.79102H2.77539ZM4.64121 8.17539H3.64121V9.17539H4.64121V8.17539ZM6.31484 8.17539V9.17539H7.31484V8.17539H6.31484ZM6.31484 7.79102H7.31484V6.79102H6.31484V7.79102ZM4.64121 7.79102V6.79102H3.64121V7.79102H4.64121ZM2.77539 9.17539H4.44902V7.17539H2.77539V9.17539ZM5.44902 8.17539V7.79102H3.44902V8.17539H5.44902ZM4.44902 6.79102H2.77539V8.79102H4.44902V6.79102ZM1.77539 7.79102V8.17539H3.77539V7.79102H1.77539ZM4.64121 9.17539H6.31484V7.17539H4.64121V9.17539ZM7.31484 8.17539V7.79102H5.31484V8.17539H7.31484ZM6.31484 6.79102H4.64121V8.79102H6.31484V6.79102ZM3.64121 7.79102V8.17539H5.64121V7.79102H3.64121Z" fill="white" mask="url(#path-27-inside-9_23916_2210)"/>
<mask id="path-29-inside-10_23916_2210" fill="white">
<path d="M6.49902 8.17539H8.17266V7.79102H6.49902V8.17539ZM8.36484 8.17539H10.0465V7.79102H8.36484V8.17539Z"/>
</mask>
<path d="M6.49902 8.17539H8.17266V7.79102H6.49902V8.17539ZM8.36484 8.17539H10.0465V7.79102H8.36484V8.17539Z" fill="white"/>
<path d="M6.49902 8.17539H5.49902V9.17539H6.49902V8.17539ZM8.17266 8.17539V9.17539H9.17266V8.17539H8.17266ZM8.17266 7.79102H9.17266V6.79102H8.17266V7.79102ZM6.49902 7.79102V6.79102H5.49902V7.79102H6.49902ZM8.36484 8.17539H7.36484V9.17539H8.36484V8.17539ZM10.0465 8.17539V9.17539H11.0465V8.17539H10.0465ZM10.0465 7.79102H11.0465V6.79102H10.0465V7.79102ZM8.36484 7.79102V6.79102H7.36484V7.79102H8.36484ZM6.49902 9.17539H8.17266V7.17539H6.49902V9.17539ZM9.17266 8.17539V7.79102H7.17266V8.17539H9.17266ZM8.17266 6.79102H6.49902V8.79102H8.17266V6.79102ZM5.49902 7.79102V8.17539H7.49902V7.79102H5.49902ZM8.36484 9.17539H10.0465V7.17539H8.36484V9.17539ZM11.0465 8.17539V7.79102H9.04648V8.17539H11.0465ZM10.0465 6.79102H8.36484V8.79102H10.0465V6.79102ZM7.36484 7.79102V8.17539H9.36484V7.79102H7.36484Z" fill="white" mask="url(#path-29-inside-10_23916_2210)"/>
<mask id="path-31-inside-11_23916_2210" fill="white">
<path d="M10.2305 8.17539H11.9121V7.79102H10.2305V8.17539ZM12.0963 8.17539H13.7779V7.79102H12.0963V8.17539Z"/>
</mask>
<path d="M10.2305 8.17539H11.9121V7.79102H10.2305V8.17539ZM12.0963 8.17539H13.7779V7.79102H12.0963V8.17539Z" fill="white"/>
<path d="M10.2305 8.17539H9.23047V9.17539H10.2305V8.17539ZM11.9121 8.17539V9.17539H12.9121V8.17539H11.9121ZM11.9121 7.79102H12.9121V6.79102H11.9121V7.79102ZM10.2305 7.79102V6.79102H9.23047V7.79102H10.2305ZM12.0963 8.17539H11.0963V9.17539H12.0963V8.17539ZM13.7779 8.17539V9.17539H14.7779V8.17539H13.7779ZM13.7779 7.79102H14.7779V6.79102H13.7779V7.79102ZM12.0963 7.79102V6.79102H11.0963V7.79102H12.0963ZM10.2305 9.17539H11.9121V7.17539H10.2305V9.17539ZM12.9121 8.17539V7.79102H10.9121V8.17539H12.9121ZM11.9121 6.79102H10.2305V8.79102H11.9121V6.79102ZM9.23047 7.79102V8.17539H11.2305V7.79102H9.23047ZM12.0963 9.17539H13.7779V7.17539H12.0963V9.17539ZM14.7779 8.17539V7.79102H12.7779V8.17539H14.7779ZM13.7779 6.79102H12.0963V8.79102H13.7779V6.79102ZM11.0963 7.79102V8.17539H13.0963V7.79102H11.0963Z" fill="white" mask="url(#path-31-inside-11_23916_2210)"/>
<mask id="path-33-inside-12_23916_2210" fill="white">
<path d="M13.9541 8.17539H15.6277V7.79102H13.9541V8.17539ZM15.8199 8.17539H17.4936V7.79102H15.8199V8.17539Z"/>
</mask>
<path d="M13.9541 8.17539H15.6277V7.79102H13.9541V8.17539ZM15.8199 8.17539H17.4936V7.79102H15.8199V8.17539Z" fill="white"/>
<path d="M13.9541 8.17539H12.9541V9.17539H13.9541V8.17539ZM15.6277 8.17539V9.17539H16.6277V8.17539H15.6277ZM15.6277 7.79102H16.6277V6.79102H15.6277V7.79102ZM13.9541 7.79102V6.79102H12.9541V7.79102H13.9541ZM15.8199 8.17539H14.8199V9.17539H15.8199V8.17539ZM17.4936 8.17539V9.17539H18.4936V8.17539H17.4936ZM17.4936 7.79102H18.4936V6.79102H17.4936V7.79102ZM15.8199 7.79102V6.79102H14.8199V7.79102H15.8199ZM13.9541 9.17539H15.6277V7.17539H13.9541V9.17539ZM16.6277 8.17539V7.79102H14.6277V8.17539H16.6277ZM15.6277 6.79102H13.9541V8.79102H15.6277V6.79102ZM12.9541 7.79102V8.17539H14.9541V7.79102H12.9541ZM15.8199 9.17539H17.4936V7.17539H15.8199V9.17539ZM18.4936 8.17539V7.79102H16.4936V8.17539H18.4936ZM17.4936 6.79102H15.8199V8.79102H17.4936V6.79102ZM14.8199 7.79102V8.17539H16.8199V7.79102H14.8199Z" fill="white" mask="url(#path-33-inside-12_23916_2210)"/>
<mask id="path-35-inside-13_23916_2210" fill="white">
<path d="M17.6855 8.17539H19.3592V7.79102H17.6855V8.17539ZM19.5514 8.17539H21.225V7.79102H19.5514V8.17539Z"/>
</mask>
<path d="M17.6855 8.17539H19.3592V7.79102H17.6855V8.17539ZM19.5514 8.17539H21.225V7.79102H19.5514V8.17539Z" fill="white"/>
<path d="M17.6855 8.17539H16.6855V9.17539H17.6855V8.17539ZM19.3592 8.17539V9.17539H20.3592V8.17539H19.3592ZM19.3592 7.79102H20.3592V6.79102H19.3592V7.79102ZM17.6855 7.79102V6.79102H16.6855V7.79102H17.6855ZM19.5514 8.17539H18.5514V9.17539H19.5514V8.17539ZM21.225 8.17539V9.17539H22.225V8.17539H21.225ZM21.225 7.79102H22.225V6.79102H21.225V7.79102ZM19.5514 7.79102V6.79102H18.5514V7.79102H19.5514ZM17.6855 9.17539H19.3592V7.17539H17.6855V9.17539ZM20.3592 8.17539V7.79102H18.3592V8.17539H20.3592ZM19.3592 6.79102H17.6855V8.79102H19.3592V6.79102ZM16.6855 7.79102V8.17539H18.6855V7.79102H16.6855ZM19.5514 9.17539H21.225V7.17539H19.5514V9.17539ZM22.225 8.17539V7.79102H20.225V8.17539H22.225ZM21.225 6.79102H19.5514V8.79102H21.225V6.79102ZM18.5514 7.79102V8.17539H20.5514V7.79102H18.5514Z" fill="white" mask="url(#path-35-inside-13_23916_2210)"/>
<mask id="path-37-inside-14_23916_2210" fill="white">
<path d="M21.4092 8.17539H23.0828V7.79102H21.4092V8.17539ZM23.275 8.17539H24.9486V7.79102H23.275V8.17539Z"/>
</mask>
<path d="M21.4092 8.17539H23.0828V7.79102H21.4092V8.17539ZM23.275 8.17539H24.9486V7.79102H23.275V8.17539Z" fill="white"/>
<path d="M21.4092 8.17539H20.4092V9.17539H21.4092V8.17539ZM23.0828 8.17539V9.17539H24.0828V8.17539H23.0828ZM23.0828 7.79102H24.0828V6.79102H23.0828V7.79102ZM21.4092 7.79102V6.79102H20.4092V7.79102H21.4092ZM23.275 8.17539H22.275V9.17539H23.275V8.17539ZM24.9486 8.17539V9.17539H25.9486V8.17539H24.9486ZM24.9486 7.79102H25.9486V6.79102H24.9486V7.79102ZM23.275 7.79102V6.79102H22.275V7.79102H23.275ZM21.4092 9.17539H23.0828V7.17539H21.4092V9.17539ZM24.0828 8.17539V7.79102H22.0828V8.17539H24.0828ZM23.0828 6.79102H21.4092V8.79102H23.0828V6.79102ZM20.4092 7.79102V8.17539H22.4092V7.79102H20.4092ZM23.275 9.17539H24.9486V7.17539H23.275V9.17539ZM25.9486 8.17539V7.79102H23.9486V8.17539H25.9486ZM24.9486 6.79102H23.275V8.79102H24.9486V6.79102ZM22.275 7.79102V8.17539H24.275V7.79102H22.275Z" fill="white" mask="url(#path-37-inside-14_23916_2210)"/>
<mask id="path-39-inside-15_23916_2210" fill="white">
<path d="M-0.948242 17.2576H-0.764063V16.8732H-0.203516V17.2576H0.72539V16.6891H0.164843V16.8813H0.541211V17.0734H-0.019336V16.6891H-0.948242V17.2576ZM-0.579883 17.2576H-0.395704V17.0654H-0.579883V17.2576ZM-0.948242 16.4969H1.47812V16.3047H-0.948242V16.4969ZM1.47012 17.2576H0.90957V16.6891H1.6543V16.3047H1.83848V17.0654H2.02266V16.3047H2.20684V17.0654H2.39102V16.3047H2.5752V17.2576H1.64629V16.8732H1.08574V17.0654H1.46211V17.2576H1.47012Z"/>
</mask>
<path d="M-0.948242 17.2576H-0.764063V16.8732H-0.203516V17.2576H0.72539V16.6891H0.164843V16.8813H0.541211V17.0734H-0.019336V16.6891H-0.948242V17.2576ZM-0.579883 17.2576H-0.395704V17.0654H-0.579883V17.2576ZM-0.948242 16.4969H1.47812V16.3047H-0.948242V16.4969ZM1.47012 17.2576H0.90957V16.6891H1.6543V16.3047H1.83848V17.0654H2.02266V16.3047H2.20684V17.0654H2.39102V16.3047H2.5752V17.2576H1.64629V16.8732H1.08574V17.0654H1.46211V17.2576H1.47012Z" fill="white"/>
<path d="M-0.948242 17.2576H-1.94824V18.2576H-0.948242V17.2576ZM-0.764063 17.2576V18.2576H0.235937V17.2576H-0.764063ZM-0.764063 16.8732V15.8732H-1.76406V16.8732H-0.764063ZM-0.203516 16.8732H0.796484V15.8732H-0.203516V16.8732ZM-0.203516 17.2576H-1.20352V18.2576H-0.203516V17.2576ZM0.72539 17.2576V18.2576H1.72539V17.2576H0.72539ZM0.72539 16.6891H1.72539V15.6891H0.72539V16.6891ZM0.164843 16.6891V15.6891H-0.835157V16.6891H0.164843ZM0.164843 16.8813H-0.835157V17.8813H0.164843V16.8813ZM0.541211 16.8813H1.54121V15.8813H0.541211V16.8813ZM0.541211 17.0734V18.0734H1.54121V17.0734H0.541211ZM-0.019336 17.0734H-1.01934V18.0734H-0.019336V17.0734ZM-0.019336 16.6891H0.980664V15.6891H-0.019336V16.6891ZM-0.948242 16.6891V15.6891H-1.94824V16.6891H-0.948242ZM-0.579883 17.2576H-1.57988V18.2576H-0.579883V17.2576ZM-0.395704 17.2576V18.2576H0.604296V17.2576H-0.395704ZM-0.395704 17.0654H0.604296V16.0654H-0.395704V17.0654ZM-0.579883 17.0654V16.0654H-1.57988V17.0654H-0.579883ZM-0.948242 16.4969H-1.94824V17.4969H-0.948242V16.4969ZM1.47812 16.4969V17.4969H2.47812V16.4969H1.47812ZM1.47812 16.3047H2.47812V15.3047H1.47812V16.3047ZM-0.948242 16.3047V15.3047H-1.94824V16.3047H-0.948242ZM0.90957 17.2576H-0.0904299V18.2576H0.90957V17.2576ZM0.90957 16.6891V15.6891H-0.0904299V16.6891H0.90957ZM1.6543 16.6891V17.6891H2.6543V16.6891H1.6543ZM1.6543 16.3047V15.3047H0.654297V16.3047H1.6543ZM1.83848 16.3047H2.83848V15.3047H1.83848V16.3047ZM1.83848 17.0654H0.838477V18.0654H1.83848V17.0654ZM2.02266 17.0654V18.0654H3.02266V17.0654H2.02266ZM2.02266 16.3047V15.3047H1.02266V16.3047H2.02266ZM2.20684 16.3047H3.20684V15.3047H2.20684V16.3047ZM2.20684 17.0654H1.20684V18.0654H2.20684V17.0654ZM2.39102 17.0654V18.0654H3.39102V17.0654H2.39102ZM2.39102 16.3047V15.3047H1.39102V16.3047H2.39102ZM2.5752 16.3047H3.5752V15.3047H2.5752V16.3047ZM2.5752 17.2576V18.2576H3.5752V17.2576H2.5752ZM1.64629 17.2576H0.646289V18.2576H1.64629V17.2576ZM1.64629 16.8732H2.64629V15.8732H1.64629V16.8732ZM1.08574 16.8732V15.8732H0.0857418V16.8732H1.08574ZM1.08574 17.0654H0.0857418V18.0654H1.08574V17.0654ZM1.46211 17.0654H2.46211V16.0654H1.46211V17.0654ZM1.46211 17.2576H0.462109V18.2576H1.46211V17.2576ZM-0.948242 18.2576H-0.764063V16.2576H-0.948242V18.2576ZM0.235937 17.2576V16.8732H-1.76406V17.2576H0.235937ZM-0.764063 17.8732H-0.203516V15.8732H-0.764063V17.8732ZM-1.20352 16.8732V17.2576H0.796484V16.8732H-1.20352ZM-0.203516 18.2576H0.72539V16.2576H-0.203516V18.2576ZM1.72539 17.2576V16.6891H-0.27461V17.2576H1.72539ZM0.72539 15.6891H0.164843V17.6891H0.72539V15.6891ZM-0.835157 16.6891V16.8813H1.16484V16.6891H-0.835157ZM0.164843 17.8813H0.541211V15.8813H0.164843V17.8813ZM-0.458789 16.8813V17.0734H1.54121V16.8813H-0.458789ZM0.541211 16.0734H-0.019336V18.0734H0.541211V16.0734ZM0.980664 17.0734V16.6891H-1.01934V17.0734H0.980664ZM-0.019336 15.6891H-0.948242V17.6891H-0.019336V15.6891ZM-1.94824 16.6891V17.2576H0.0517578V16.6891H-1.94824ZM-0.579883 18.2576H-0.395704V16.2576H-0.579883V18.2576ZM0.604296 17.2576V17.0654H-1.3957V17.2576H0.604296ZM-0.395704 16.0654H-0.579883V18.0654H-0.395704V16.0654ZM-1.57988 17.0654V17.2576H0.420117V17.0654H-1.57988ZM-0.948242 17.4969H1.47812V15.4969H-0.948242V17.4969ZM2.47812 16.4969V16.3047H0.478125V16.4969H2.47812ZM1.47812 15.3047H-0.948242V17.3047H1.47812V15.3047ZM-1.94824 16.3047V16.4969H0.0517578V16.3047H-1.94824ZM1.47012 16.2576H0.90957V18.2576H1.47012V16.2576ZM1.90957 17.2576V16.6891H-0.0904299V17.2576H1.90957ZM0.90957 17.6891H1.6543V15.6891H0.90957V17.6891ZM2.6543 16.6891V16.3047H0.654297V16.6891H2.6543ZM1.6543 17.3047H1.83848V15.3047H1.6543V17.3047ZM0.838477 16.3047V17.0654H2.83848V16.3047H0.838477ZM1.83848 18.0654H2.02266V16.0654H1.83848V18.0654ZM3.02266 17.0654V16.3047H1.02266V17.0654H3.02266ZM2.02266 17.3047H2.20684V15.3047H2.02266V17.3047ZM1.20684 16.3047V17.0654H3.20684V16.3047H1.20684ZM2.20684 18.0654H2.39102V16.0654H2.20684V18.0654ZM3.39102 17.0654V16.3047H1.39102V17.0654H3.39102ZM2.39102 17.3047H2.5752V15.3047H2.39102V17.3047ZM1.5752 16.3047V17.2576H3.5752V16.3047H1.5752ZM2.5752 16.2576H1.64629V18.2576H2.5752V16.2576ZM2.64629 17.2576V16.8732H0.646289V17.2576H2.64629ZM1.64629 15.8732H1.08574V17.8732H1.64629V15.8732ZM0.0857418 16.8732V17.0654H2.08574V16.8732H0.0857418ZM1.08574 18.0654H1.46211V16.0654H1.08574V18.0654ZM0.462109 17.0654V17.2576H2.46211V17.0654H0.462109ZM1.46211 18.2576H1.47012V16.2576H1.46211V18.2576Z" fill="white" mask="url(#path-39-inside-15_23916_2210)"/>
<mask id="path-41-inside-16_23916_2210" fill="white">
<path d="M2.77539 17.2576H2.95957V16.8732H3.52012V17.2576H4.44902V16.6891H3.88848V16.8813H4.26484V17.0734H3.7043V16.6891H2.77539V17.2576ZM3.15176 17.2576H3.33594V17.0654H3.15176V17.2576ZM2.77539 16.4969H5.19375V16.3047H2.77539V16.4969ZM5.19375 17.2576H4.6332V16.6891H5.37793V16.3047H5.56211V17.0654H5.74629V16.3047H5.93047V17.0654H6.11465V16.3047H6.29883V17.2576H5.36992V16.8732H4.80937V17.0654H5.18574V17.2576H5.19375Z"/>
</mask>
<path d="M2.77539 17.2576H2.95957V16.8732H3.52012V17.2576H4.44902V16.6891H3.88848V16.8813H4.26484V17.0734H3.7043V16.6891H2.77539V17.2576ZM3.15176 17.2576H3.33594V17.0654H3.15176V17.2576ZM2.77539 16.4969H5.19375V16.3047H2.77539V16.4969ZM5.19375 17.2576H4.6332V16.6891H5.37793V16.3047H5.56211V17.0654H5.74629V16.3047H5.93047V17.0654H6.11465V16.3047H6.29883V17.2576H5.36992V16.8732H4.80937V17.0654H5.18574V17.2576H5.19375Z" fill="white"/>
<path d="M2.77539 17.2576H1.77539V18.2576H2.77539V17.2576ZM2.95957 17.2576V18.2576H3.95957V17.2576H2.95957ZM2.95957 16.8732V15.8732H1.95957V16.8732H2.95957ZM3.52012 16.8732H4.52012V15.8732H3.52012V16.8732ZM3.52012 17.2576H2.52012V18.2576H3.52012V17.2576ZM4.44902 17.2576V18.2576H5.44902V17.2576H4.44902ZM4.44902 16.6891H5.44902V15.6891H4.44902V16.6891ZM3.88848 16.6891V15.6891H2.88848V16.6891H3.88848ZM3.88848 16.8813H2.88848V17.8813H3.88848V16.8813ZM4.26484 16.8813H5.26484V15.8813H4.26484V16.8813ZM4.26484 17.0734V18.0734H5.26484V17.0734H4.26484ZM3.7043 17.0734H2.7043V18.0734H3.7043V17.0734ZM3.7043 16.6891H4.7043V15.6891H3.7043V16.6891ZM2.77539 16.6891V15.6891H1.77539V16.6891H2.77539ZM3.15176 17.2576H2.15176V18.2576H3.15176V17.2576ZM3.33594 17.2576V18.2576H4.33594V17.2576H3.33594ZM3.33594 17.0654H4.33594V16.0654H3.33594V17.0654ZM3.15176 17.0654V16.0654H2.15176V17.0654H3.15176ZM2.77539 16.4969H1.77539V17.4969H2.77539V16.4969ZM5.19375 16.4969V17.4969H6.19375V16.4969H5.19375ZM5.19375 16.3047H6.19375V15.3047H5.19375V16.3047ZM2.77539 16.3047V15.3047H1.77539V16.3047H2.77539ZM4.6332 17.2576H3.6332V18.2576H4.6332V17.2576ZM4.6332 16.6891V15.6891H3.6332V16.6891H4.6332ZM5.37793 16.6891V17.6891H6.37793V16.6891H5.37793ZM5.37793 16.3047V15.3047H4.37793V16.3047H5.37793ZM5.56211 16.3047H6.56211V15.3047H5.56211V16.3047ZM5.56211 17.0654H4.56211V18.0654H5.56211V17.0654ZM5.74629 17.0654V18.0654H6.74629V17.0654H5.74629ZM5.74629 16.3047V15.3047H4.74629V16.3047H5.74629ZM5.93047 16.3047H6.93047V15.3047H5.93047V16.3047ZM5.93047 17.0654H4.93047V18.0654H5.93047V17.0654ZM6.11465 17.0654V18.0654H7.11465V17.0654H6.11465ZM6.11465 16.3047V15.3047H5.11465V16.3047H6.11465ZM6.29883 16.3047H7.29883V15.3047H6.29883V16.3047ZM6.29883 17.2576V18.2576H7.29883V17.2576H6.29883ZM5.36992 17.2576H4.36992V18.2576H5.36992V17.2576ZM5.36992 16.8732H6.36992V15.8732H5.36992V16.8732ZM4.80937 16.8732V15.8732H3.80937V16.8732H4.80937ZM4.80937 17.0654H3.80937V18.0654H4.80937V17.0654ZM5.18574 17.0654H6.18574V16.0654H5.18574V17.0654ZM5.18574 17.2576H4.18574V18.2576H5.18574V17.2576ZM2.77539 18.2576H2.95957V16.2576H2.77539V18.2576ZM3.95957 17.2576V16.8732H1.95957V17.2576H3.95957ZM2.95957 17.8732H3.52012V15.8732H2.95957V17.8732ZM2.52012 16.8732V17.2576H4.52012V16.8732H2.52012ZM3.52012 18.2576H4.44902V16.2576H3.52012V18.2576ZM5.44902 17.2576V16.6891H3.44902V17.2576H5.44902ZM4.44902 15.6891H3.88848V17.6891H4.44902V15.6891ZM2.88848 16.6891V16.8813H4.88848V16.6891H2.88848ZM3.88848 17.8813H4.26484V15.8813H3.88848V17.8813ZM3.26484 16.8813V17.0734H5.26484V16.8813H3.26484ZM4.26484 16.0734H3.7043V18.0734H4.26484V16.0734ZM4.7043 17.0734V16.6891H2.7043V17.0734H4.7043ZM3.7043 15.6891H2.77539V17.6891H3.7043V15.6891ZM1.77539 16.6891V17.2576H3.77539V16.6891H1.77539ZM3.15176 18.2576H3.33594V16.2576H3.15176V18.2576ZM4.33594 17.2576V17.0654H2.33594V17.2576H4.33594ZM3.33594 16.0654H3.15176V18.0654H3.33594V16.0654ZM2.15176 17.0654V17.2576H4.15176V17.0654H2.15176ZM2.77539 17.4969H5.19375V15.4969H2.77539V17.4969ZM6.19375 16.4969V16.3047H4.19375V16.4969H6.19375ZM5.19375 15.3047H2.77539V17.3047H5.19375V15.3047ZM1.77539 16.3047V16.4969H3.77539V16.3047H1.77539ZM5.19375 16.2576H4.6332V18.2576H5.19375V16.2576ZM5.6332 17.2576V16.6891H3.6332V17.2576H5.6332ZM4.6332 17.6891H5.37793V15.6891H4.6332V17.6891ZM6.37793 16.6891V16.3047H4.37793V16.6891H6.37793ZM5.37793 17.3047H5.56211V15.3047H5.37793V17.3047ZM4.56211 16.3047V17.0654H6.56211V16.3047H4.56211ZM5.56211 18.0654H5.74629V16.0654H5.56211V18.0654ZM6.74629 17.0654V16.3047H4.74629V17.0654H6.74629ZM5.74629 17.3047H5.93047V15.3047H5.74629V17.3047ZM4.93047 16.3047V17.0654H6.93047V16.3047H4.93047ZM5.93047 18.0654H6.11465V16.0654H5.93047V18.0654ZM7.11465 17.0654V16.3047H5.11465V17.0654H7.11465ZM6.11465 17.3047H6.29883V15.3047H6.11465V17.3047ZM5.29883 16.3047V17.2576H7.29883V16.3047H5.29883ZM6.29883 16.2576H5.36992V18.2576H6.29883V16.2576ZM6.36992 17.2576V16.8732H4.36992V17.2576H6.36992ZM5.36992 15.8732H4.80937V17.8732H5.36992V15.8732ZM3.80937 16.8732V17.0654H5.80937V16.8732H3.80937ZM4.80937 18.0654H5.18574V16.0654H4.80937V18.0654ZM4.18574 17.0654V17.2576H6.18574V17.0654H4.18574ZM5.18574 18.2576H5.19375V16.2576H5.18574V18.2576Z" fill="white" mask="url(#path-41-inside-16_23916_2210)"/>
<mask id="path-43-inside-17_23916_2210" fill="white">
<path d="M6.49902 17.2576H6.6832V16.8732H7.24375V17.2576H8.17266V16.6891H7.61211V16.8813H7.98848V17.0734H7.42793V16.6891H6.49902V17.2576ZM6.87539 17.2576H7.05957V17.0654H6.87539V17.2576ZM6.49902 16.4969H8.91738V16.3047H6.49902V16.4969ZM8.92539 17.2576H8.36484V16.6891H9.10957V16.3047H9.29375V17.0654H9.47793V16.3047H9.66211V17.0654H9.84629V16.3047H10.0305V17.2576H9.10156V16.8732H8.54102V17.0654H8.91738V17.2576H8.92539Z"/>
</mask>
<path d="M6.49902 17.2576H6.6832V16.8732H7.24375V17.2576H8.17266V16.6891H7.61211V16.8813H7.98848V17.0734H7.42793V16.6891H6.49902V17.2576ZM6.87539 17.2576H7.05957V17.0654H6.87539V17.2576ZM6.49902 16.4969H8.91738V16.3047H6.49902V16.4969ZM8.92539 17.2576H8.36484V16.6891H9.10957V16.3047H9.29375V17.0654H9.47793V16.3047H9.66211V17.0654H9.84629V16.3047H10.0305V17.2576H9.10156V16.8732H8.54102V17.0654H8.91738V17.2576H8.92539Z" fill="white"/>
<path d="M6.49902 17.2576H5.49902V18.2576H6.49902V17.2576ZM6.6832 17.2576V18.2576H7.6832V17.2576H6.6832ZM6.6832 16.8732V15.8732H5.6832V16.8732H6.6832ZM7.24375 16.8732H8.24375V15.8732H7.24375V16.8732ZM7.24375 17.2576H6.24375V18.2576H7.24375V17.2576ZM8.17266 17.2576V18.2576H9.17266V17.2576H8.17266ZM8.17266 16.6891H9.17266V15.6891H8.17266V16.6891ZM7.61211 16.6891V15.6891H6.61211V16.6891H7.61211ZM7.61211 16.8813H6.61211V17.8813H7.61211V16.8813ZM7.98848 16.8813H8.98848V15.8813H7.98848V16.8813ZM7.98848 17.0734V18.0734H8.98848V17.0734H7.98848ZM7.42793 17.0734H6.42793V18.0734H7.42793V17.0734ZM7.42793 16.6891H8.42793V15.6891H7.42793V16.6891ZM6.49902 16.6891V15.6891H5.49902V16.6891H6.49902ZM6.87539 17.2576H5.87539V18.2576H6.87539V17.2576ZM7.05957 17.2576V18.2576H8.05957V17.2576H7.05957ZM7.05957 17.0654H8.05957V16.0654H7.05957V17.0654ZM6.87539 17.0654V16.0654H5.87539V17.0654H6.87539ZM6.49902 16.4969H5.49902V17.4969H6.49902V16.4969ZM8.91738 16.4969V17.4969H9.91738V16.4969H8.91738ZM8.91738 16.3047H9.91738V15.3047H8.91738V16.3047ZM6.49902 16.3047V15.3047H5.49902V16.3047H6.49902ZM8.36484 17.2576H7.36484V18.2576H8.36484V17.2576ZM8.36484 16.6891V15.6891H7.36484V16.6891H8.36484ZM9.10957 16.6891V17.6891H10.1096V16.6891H9.10957ZM9.10957 16.3047V15.3047H8.10957V16.3047H9.10957ZM9.29375 16.3047H10.2937V15.3047H9.29375V16.3047ZM9.29375 17.0654H8.29375V18.0654H9.29375V17.0654ZM9.47793 17.0654V18.0654H10.4779V17.0654H9.47793ZM9.47793 16.3047V15.3047H8.47793V16.3047H9.47793ZM9.66211 16.3047H10.6621V15.3047H9.66211V16.3047ZM9.66211 17.0654H8.66211V18.0654H9.66211V17.0654ZM9.84629 17.0654V18.0654H10.8463V17.0654H9.84629ZM9.84629 16.3047V15.3047H8.84629V16.3047H9.84629ZM10.0305 16.3047H11.0305V15.3047H10.0305V16.3047ZM10.0305 17.2576V18.2576H11.0305V17.2576H10.0305ZM9.10156 17.2576H8.10156V18.2576H9.10156V17.2576ZM9.10156 16.8732H10.1016V15.8732H9.10156V16.8732ZM8.54102 16.8732V15.8732H7.54102V16.8732H8.54102ZM8.54102 17.0654H7.54102V18.0654H8.54102V17.0654ZM8.91738 17.0654H9.91738V16.0654H8.91738V17.0654ZM8.91738 17.2576H7.91738V18.2576H8.91738V17.2576ZM6.49902 18.2576H6.6832V16.2576H6.49902V18.2576ZM7.6832 17.2576V16.8732H5.6832V17.2576H7.6832ZM6.6832 17.8732H7.24375V15.8732H6.6832V17.8732ZM6.24375 16.8732V17.2576H8.24375V16.8732H6.24375ZM7.24375 18.2576H8.17266V16.2576H7.24375V18.2576ZM9.17266 17.2576V16.6891H7.17266V17.2576H9.17266ZM8.17266 15.6891H7.61211V17.6891H8.17266V15.6891ZM6.61211 16.6891V16.8813H8.61211V16.6891H6.61211ZM7.61211 17.8813H7.98848V15.8813H7.61211V17.8813ZM6.98848 16.8813V17.0734H8.98848V16.8813H6.98848ZM7.98848 16.0734H7.42793V18.0734H7.98848V16.0734ZM8.42793 17.0734V16.6891H6.42793V17.0734H8.42793ZM7.42793 15.6891H6.49902V17.6891H7.42793V15.6891ZM5.49902 16.6891V17.2576H7.49902V16.6891H5.49902ZM6.87539 18.2576H7.05957V16.2576H6.87539V18.2576ZM8.05957 17.2576V17.0654H6.05957V17.2576H8.05957ZM7.05957 16.0654H6.87539V18.0654H7.05957V16.0654ZM5.87539 17.0654V17.2576H7.87539V17.0654H5.87539ZM6.49902 17.4969H8.91738V15.4969H6.49902V17.4969ZM9.91738 16.4969V16.3047H7.91738V16.4969H9.91738ZM8.91738 15.3047H6.49902V17.3047H8.91738V15.3047ZM5.49902 16.3047V16.4969H7.49902V16.3047H5.49902ZM8.92539 16.2576H8.36484V18.2576H8.92539V16.2576ZM9.36484 17.2576V16.6891H7.36484V17.2576H9.36484ZM8.36484 17.6891H9.10957V15.6891H8.36484V17.6891ZM10.1096 16.6891V16.3047H8.10957V16.6891H10.1096ZM9.10957 17.3047H9.29375V15.3047H9.10957V17.3047ZM8.29375 16.3047V17.0654H10.2937V16.3047H8.29375ZM9.29375 18.0654H9.47793V16.0654H9.29375V18.0654ZM10.4779 17.0654V16.3047H8.47793V17.0654H10.4779ZM9.47793 17.3047H9.66211V15.3047H9.47793V17.3047ZM8.66211 16.3047V17.0654H10.6621V16.3047H8.66211ZM9.66211 18.0654H9.84629V16.0654H9.66211V18.0654ZM10.8463 17.0654V16.3047H8.84629V17.0654H10.8463ZM9.84629 17.3047H10.0305V15.3047H9.84629V17.3047ZM9.03047 16.3047V17.2576H11.0305V16.3047H9.03047ZM10.0305 16.2576H9.10156V18.2576H10.0305V16.2576ZM10.1016 17.2576V16.8732H8.10156V17.2576H10.1016ZM9.10156 15.8732H8.54102V17.8732H9.10156V15.8732ZM7.54102 16.8732V17.0654H9.54102V16.8732H7.54102ZM8.54102 18.0654H8.91738V16.0654H8.54102V18.0654ZM7.91738 17.0654V17.2576H9.91738V17.0654H7.91738ZM8.91738 18.2576H8.92539V16.2576H8.91738V18.2576Z" fill="white" mask="url(#path-43-inside-17_23916_2210)"/>
<mask id="path-45-inside-18_23916_2210" fill="white">
<path d="M10.2305 17.2576H10.4146V16.8732H10.9752V17.2576H11.9041V16.6891H11.3436V16.8813H11.7199V17.0734H11.1594V16.6891H10.2305V17.2576ZM10.6068 17.2576H10.791V17.0654H10.6068V17.2576ZM10.2305 16.4969H12.6568V16.3047H10.2305V16.4969ZM12.6488 17.2576H12.0883V16.6891H12.833V16.3047H13.0172V17.0654H13.2014V16.3047H13.3855V17.0654H13.5697V16.3047H13.7539V17.2576H12.825V16.8732H12.2645V17.0654H12.6408V17.2576H12.6488Z"/>
</mask>
<path d="M10.2305 17.2576H10.4146V16.8732H10.9752V17.2576H11.9041V16.6891H11.3436V16.8813H11.7199V17.0734H11.1594V16.6891H10.2305V17.2576ZM10.6068 17.2576H10.791V17.0654H10.6068V17.2576ZM10.2305 16.4969H12.6568V16.3047H10.2305V16.4969ZM12.6488 17.2576H12.0883V16.6891H12.833V16.3047H13.0172V17.0654H13.2014V16.3047H13.3855V17.0654H13.5697V16.3047H13.7539V17.2576H12.825V16.8732H12.2645V17.0654H12.6408V17.2576H12.6488Z" fill="white"/>
<path d="M10.2305 17.2576H9.23047V18.2576H10.2305V17.2576ZM10.4146 17.2576V18.2576H11.4146V17.2576H10.4146ZM10.4146 16.8732V15.8732H9.41465V16.8732H10.4146ZM10.9752 16.8732H11.9752V15.8732H10.9752V16.8732ZM10.9752 17.2576H9.9752V18.2576H10.9752V17.2576ZM11.9041 17.2576V18.2576H12.9041V17.2576H11.9041ZM11.9041 16.6891H12.9041V15.6891H11.9041V16.6891ZM11.3436 16.6891V15.6891H10.3436V16.6891H11.3436ZM11.3436 16.8813H10.3436V17.8813H11.3436V16.8813ZM11.7199 16.8813H12.7199V15.8813H11.7199V16.8813ZM11.7199 17.0734V18.0734H12.7199V17.0734H11.7199ZM11.1594 17.0734H10.1594V18.0734H11.1594V17.0734ZM11.1594 16.6891H12.1594V15.6891H11.1594V16.6891ZM10.2305 16.6891V15.6891H9.23047V16.6891H10.2305ZM10.6068 17.2576H9.60684V18.2576H10.6068V17.2576ZM10.791 17.2576V18.2576H11.791V17.2576H10.791ZM10.791 17.0654H11.791V16.0654H10.791V17.0654ZM10.6068 17.0654V16.0654H9.60684V17.0654H10.6068ZM12.6568 16.4969V17.4969H13.6568V16.4969H12.6568ZM12.6568 16.3047H13.6568V15.3047H12.6568V16.3047ZM10.2305 16.3047V15.3047H9.23047V16.3047H10.2305ZM12.0883 17.2576H11.0883V18.2576H12.0883V17.2576ZM12.0883 16.6891V15.6891H11.0883V16.6891H12.0883ZM12.833 16.6891V17.6891H13.833V16.6891H12.833ZM12.833 16.3047V15.3047H11.833V16.3047H12.833ZM13.0172 16.3047H14.0172V15.3047H13.0172V16.3047ZM13.0172 17.0654H12.0172V18.0654H13.0172V17.0654ZM13.2014 17.0654V18.0654H14.2014V17.0654H13.2014ZM13.2014 16.3047V15.3047H12.2014V16.3047H13.2014ZM13.3855 16.3047H14.3855V15.3047H13.3855V16.3047ZM13.3855 17.0654H12.3855V18.0654H13.3855V17.0654ZM13.5697 17.0654V18.0654H14.5697V17.0654H13.5697ZM13.5697 16.3047V15.3047H12.5697V16.3047H13.5697ZM13.7539 16.3047H14.7539V15.3047H13.7539V16.3047ZM13.7539 17.2576V18.2576H14.7539V17.2576H13.7539ZM12.825 17.2576H11.825V18.2576H12.825V17.2576ZM12.825 16.8732H13.825V15.8732H12.825V16.8732ZM12.2645 16.8732V15.8732H11.2645V16.8732H12.2645ZM12.2645 17.0654H11.2645V18.0654H12.2645V17.0654ZM12.6408 17.0654H13.6408V16.0654H12.6408V17.0654ZM12.6408 17.2576H11.6408V18.2576H12.6408V17.2576ZM10.2305 18.2576H10.4146V16.2576H10.2305V18.2576ZM11.4146 17.2576V16.8732H9.41465V17.2576H11.4146ZM10.4146 17.8732H10.9752V15.8732H10.4146V17.8732ZM9.9752 16.8732V17.2576H11.9752V16.8732H9.9752ZM10.9752 18.2576H11.9041V16.2576H10.9752V18.2576ZM12.9041 17.2576V16.6891H10.9041V17.2576H12.9041ZM11.9041 15.6891H11.3436V17.6891H11.9041V15.6891ZM10.3436 16.6891V16.8813H12.3436V16.6891H10.3436ZM11.3436 17.8813H11.7199V15.8813H11.3436V17.8813ZM10.7199 16.8813V17.0734H12.7199V16.8813H10.7199ZM11.7199 16.0734H11.1594V18.0734H11.7199V16.0734ZM12.1594 17.0734V16.6891H10.1594V17.0734H12.1594ZM11.1594 15.6891H10.2305V17.6891H11.1594V15.6891ZM9.23047 16.6891V17.2576H11.2305V16.6891H9.23047ZM10.6068 18.2576H10.791V16.2576H10.6068V18.2576ZM11.791 17.2576V17.0654H9.79102V17.2576H11.791ZM10.791 16.0654H10.6068V18.0654H10.791V16.0654ZM9.60684 17.0654V17.2576H11.6068V17.0654H9.60684ZM10.2305 17.4969H12.6568V15.4969H10.2305V17.4969ZM13.6568 16.4969V16.3047H11.6568V16.4969H13.6568ZM12.6568 15.3047H10.2305V17.3047H12.6568V15.3047ZM9.23047 16.3047V16.4969H11.2305V16.3047H9.23047ZM12.6488 16.2576H12.0883V18.2576H12.6488V16.2576ZM13.0883 17.2576V16.6891H11.0883V17.2576H13.0883ZM12.0883 17.6891H12.833V15.6891H12.0883V17.6891ZM13.833 16.6891V16.3047H11.833V16.6891H13.833ZM12.833 17.3047H13.0172V15.3047H12.833V17.3047ZM12.0172 16.3047V17.0654H14.0172V16.3047H12.0172ZM13.0172 18.0654H13.2014V16.0654H13.0172V18.0654ZM14.2014 17.0654V16.3047H12.2014V17.0654H14.2014ZM13.2014 17.3047H13.3855V15.3047H13.2014V17.3047ZM12.3855 16.3047V17.0654H14.3855V16.3047H12.3855ZM13.3855 18.0654H13.5697V16.0654H13.3855V18.0654ZM14.5697 17.0654V16.3047H12.5697V17.0654H14.5697ZM13.5697 17.3047H13.7539V15.3047H13.5697V17.3047ZM12.7539 16.3047V17.2576H14.7539V16.3047H12.7539ZM13.7539 16.2576H12.825V18.2576H13.7539V16.2576ZM13.825 17.2576V16.8732H11.825V17.2576H13.825ZM12.825 15.8732H12.2645V17.8732H12.825V15.8732ZM11.2645 16.8732V17.0654H13.2645V16.8732H11.2645ZM12.2645 18.0654H12.6408V16.0654H12.2645V18.0654ZM11.6408 17.0654V17.2576H13.6408V17.0654H11.6408ZM12.6408 18.2576H12.6488V16.2576H12.6408V18.2576Z" fill="white" mask="url(#path-45-inside-18_23916_2210)"/>
<mask id="path-47-inside-19_23916_2210" fill="white">
<path d="M13.9541 17.2576H14.1383V16.8732H14.6988V17.2576H15.6277V16.6891H15.0672V16.8813H15.4436V17.0734H14.883V16.6891H13.9541V17.2576ZM14.3305 17.2576H14.5146V17.0654H14.3305V17.2576ZM13.9541 16.4969H16.3805V16.3047H13.9541V16.4969ZM16.3805 17.2576H15.8199V16.6891H16.5646V16.3047H16.7488V17.0654H16.933V16.3047H17.1172V17.0654H17.3014V16.3047H17.4855V17.2576H16.5646V16.8732H16.0041V17.0654H16.3805V17.2576Z"/>
</mask>
<path d="M13.9541 17.2576H14.1383V16.8732H14.6988V17.2576H15.6277V16.6891H15.0672V16.8813H15.4436V17.0734H14.883V16.6891H13.9541V17.2576ZM14.3305 17.2576H14.5146V17.0654H14.3305V17.2576ZM13.9541 16.4969H16.3805V16.3047H13.9541V16.4969ZM16.3805 17.2576H15.8199V16.6891H16.5646V16.3047H16.7488V17.0654H16.933V16.3047H17.1172V17.0654H17.3014V16.3047H17.4855V17.2576H16.5646V16.8732H16.0041V17.0654H16.3805V17.2576Z" fill="white"/>
<path d="M13.9541 17.2576H12.9541V18.2576H13.9541V17.2576ZM14.1383 17.2576V18.2576H15.1383V17.2576H14.1383ZM14.1383 16.8732V15.8732H13.1383V16.8732H14.1383ZM14.6988 16.8732H15.6988V15.8732H14.6988V16.8732ZM14.6988 17.2576H13.6988V18.2576H14.6988V17.2576ZM15.6277 17.2576V18.2576H16.6277V17.2576H15.6277ZM15.6277 16.6891H16.6277V15.6891H15.6277V16.6891ZM15.0672 16.6891V15.6891H14.0672V16.6891H15.0672ZM15.0672 16.8813H14.0672V17.8813H15.0672V16.8813ZM15.4436 16.8813H16.4436V15.8813H15.4436V16.8813ZM15.4436 17.0734V18.0734H16.4436V17.0734H15.4436ZM14.883 17.0734H13.883V18.0734H14.883V17.0734ZM14.883 16.6891H15.883V15.6891H14.883V16.6891ZM13.9541 16.6891V15.6891H12.9541V16.6891H13.9541ZM14.3305 17.2576H13.3305V18.2576H14.3305V17.2576ZM14.5146 17.2576V18.2576H15.5146V17.2576H14.5146ZM14.5146 17.0654H15.5146V16.0654H14.5146V17.0654ZM14.3305 17.0654V16.0654H13.3305V17.0654H14.3305ZM13.9541 16.4969H12.9541V17.4969H13.9541V16.4969ZM16.3805 16.4969V17.4969H17.3805V16.4969H16.3805ZM16.3805 16.3047H17.3805V15.3047H16.3805V16.3047ZM13.9541 16.3047V15.3047H12.9541V16.3047H13.9541ZM16.3805 17.2576V18.2576H17.3805V17.2576H16.3805ZM15.8199 17.2576H14.8199V18.2576H15.8199V17.2576ZM15.8199 16.6891V15.6891H14.8199V16.6891H15.8199ZM16.5646 16.6891V17.6891H17.5646V16.6891H16.5646ZM16.5646 16.3047V15.3047H15.5646V16.3047H16.5646ZM16.7488 16.3047H17.7488V15.3047H16.7488V16.3047ZM16.7488 17.0654H15.7488V18.0654H16.7488V17.0654ZM16.933 17.0654V18.0654H17.933V17.0654H16.933ZM16.933 16.3047V15.3047H15.933V16.3047H16.933ZM17.1172 16.3047H18.1172V15.3047H17.1172V16.3047ZM17.1172 17.0654H16.1172V18.0654H17.1172V17.0654ZM17.3014 17.0654V18.0654H18.3014V17.0654H17.3014ZM17.3014 16.3047V15.3047H16.3014V16.3047H17.3014ZM17.4855 16.3047H18.4855V15.3047H17.4855V16.3047ZM17.4855 17.2576V18.2576H18.4855V17.2576H17.4855ZM16.5646 17.2576H15.5646V18.2576H16.5646V17.2576ZM16.5646 16.8732H17.5646V15.8732H16.5646V16.8732ZM16.0041 16.8732V15.8732H15.0041V16.8732H16.0041ZM16.0041 17.0654H15.0041V18.0654H16.0041V17.0654ZM16.3805 17.0654H17.3805V16.0654H16.3805V17.0654ZM13.9541 18.2576H14.1383V16.2576H13.9541V18.2576ZM15.1383 17.2576V16.8732H13.1383V17.2576H15.1383ZM14.1383 17.8732H14.6988V15.8732H14.1383V17.8732ZM13.6988 16.8732V17.2576H15.6988V16.8732H13.6988ZM14.6988 18.2576H15.6277V16.2576H14.6988V18.2576ZM16.6277 17.2576V16.6891H14.6277V17.2576H16.6277ZM15.6277 15.6891H15.0672V17.6891H15.6277V15.6891ZM14.0672 16.6891V16.8813H16.0672V16.6891H14.0672ZM15.0672 17.8813H15.4436V15.8813H15.0672V17.8813ZM14.4436 16.8813V17.0734H16.4436V16.8813H14.4436ZM15.4436 16.0734H14.883V18.0734H15.4436V16.0734ZM15.883 17.0734V16.6891H13.883V17.0734H15.883ZM14.883 15.6891H13.9541V17.6891H14.883V15.6891ZM12.9541 16.6891V17.2576H14.9541V16.6891H12.9541ZM14.3305 18.2576H14.5146V16.2576H14.3305V18.2576ZM15.5146 17.2576V17.0654H13.5146V17.2576H15.5146ZM14.5146 16.0654H14.3305V18.0654H14.5146V16.0654ZM13.3305 17.0654V17.2576H15.3305V17.0654H13.3305ZM13.9541 17.4969H16.3805V15.4969H13.9541V17.4969ZM17.3805 16.4969V16.3047H15.3805V16.4969H17.3805ZM16.3805 15.3047H13.9541V17.3047H16.3805V15.3047ZM12.9541 16.3047V16.4969H14.9541V16.3047H12.9541ZM16.3805 16.2576H15.8199V18.2576H16.3805V16.2576ZM16.8199 17.2576V16.6891H14.8199V17.2576H16.8199ZM15.8199 17.6891H16.5646V15.6891H15.8199V17.6891ZM17.5646 16.6891V16.3047H15.5646V16.6891H17.5646ZM16.5646 17.3047H16.7488V15.3047H16.5646V17.3047ZM15.7488 16.3047V17.0654H17.7488V16.3047H15.7488ZM16.7488 18.0654H16.933V16.0654H16.7488V18.0654ZM17.933 17.0654V16.3047H15.933V17.0654H17.933ZM16.933 17.3047H17.1172V15.3047H16.933V17.3047ZM16.1172 16.3047V17.0654H18.1172V16.3047H16.1172ZM17.1172 18.0654H17.3014V16.0654H17.1172V18.0654ZM18.3014 17.0654V16.3047H16.3014V17.0654H18.3014ZM17.3014 17.3047H17.4855V15.3047H17.3014V17.3047ZM16.4855 16.3047V17.2576H18.4855V16.3047H16.4855ZM17.4855 16.2576H16.5646V18.2576H17.4855V16.2576ZM17.5646 17.2576V16.8732H15.5646V17.2576H17.5646ZM16.5646 15.8732H16.0041V17.8732H16.5646V15.8732ZM15.0041 16.8732V17.0654H17.0041V16.8732H15.0041ZM16.0041 18.0654H16.3805V16.0654H16.0041V18.0654ZM15.3805 17.0654V17.2576H17.3805V17.0654H15.3805Z" fill="white" mask="url(#path-47-inside-19_23916_2210)"/>
<mask id="path-49-inside-20_23916_2210" fill="white">
<path d="M17.6855 17.2576H17.8697V16.8732H18.4303V17.2576H19.3592V16.6891H18.7986V16.8813H19.175V17.0734H18.6145V16.6891H17.6855V17.2576ZM18.0539 17.2576H18.2381V17.0654H18.0539V17.2576ZM17.6855 16.4969H20.1119V16.3047H17.6855V16.4969ZM20.1039 17.2576H19.5434V16.6891H20.2881V16.3047H20.4723V17.0654H20.6564V16.3047H20.8406V17.0654H21.0248V16.3047H21.209V17.2576H20.2801V16.8732H19.7195V17.0654H20.0959V17.2576H20.1039Z"/>
</mask>
<path d="M17.6855 17.2576H17.8697V16.8732H18.4303V17.2576H19.3592V16.6891H18.7986V16.8813H19.175V17.0734H18.6145V16.6891H17.6855V17.2576ZM18.0539 17.2576H18.2381V17.0654H18.0539V17.2576ZM17.6855 16.4969H20.1119V16.3047H17.6855V16.4969ZM20.1039 17.2576H19.5434V16.6891H20.2881V16.3047H20.4723V17.0654H20.6564V16.3047H20.8406V17.0654H21.0248V16.3047H21.209V17.2576H20.2801V16.8732H19.7195V17.0654H20.0959V17.2576H20.1039Z" fill="white"/>
<path d="M17.6855 17.2576H16.6855V18.2576H17.6855V17.2576ZM17.8697 17.2576V18.2576H18.8697V17.2576H17.8697ZM17.8697 16.8732V15.8732H16.8697V16.8732H17.8697ZM18.4303 16.8732H19.4303V15.8732H18.4303V16.8732ZM18.4303 17.2576H17.4303V18.2576H18.4303V17.2576ZM19.3592 17.2576V18.2576H20.3592V17.2576H19.3592ZM19.3592 16.6891H20.3592V15.6891H19.3592V16.6891ZM18.7986 16.6891V15.6891H17.7986V16.6891H18.7986ZM18.7986 16.8813H17.7986V17.8813H18.7986V16.8813ZM19.175 16.8813H20.175V15.8813H19.175V16.8813ZM19.175 17.0734V18.0734H20.175V17.0734H19.175ZM18.6145 17.0734H17.6145V18.0734H18.6145V17.0734ZM18.6145 16.6891H19.6145V15.6891H18.6145V16.6891ZM17.6855 16.6891V15.6891H16.6855V16.6891H17.6855ZM18.0539 17.2576H17.0539V18.2576H18.0539V17.2576ZM18.2381 17.2576V18.2576H19.2381V17.2576H18.2381ZM18.2381 17.0654H19.2381V16.0654H18.2381V17.0654ZM18.0539 17.0654V16.0654H17.0539V17.0654H18.0539ZM17.6855 16.4969H16.6855V17.4969H17.6855V16.4969ZM20.1119 16.4969V17.4969H21.1119V16.4969H20.1119ZM20.1119 16.3047H21.1119V15.3047H20.1119V16.3047ZM17.6855 16.3047V15.3047H16.6855V16.3047H17.6855ZM19.5434 17.2576H18.5434V18.2576H19.5434V17.2576ZM19.5434 16.6891V15.6891H18.5434V16.6891H19.5434ZM20.2881 16.6891V17.6891H21.2881V16.6891H20.2881ZM20.2881 16.3047V15.3047H19.2881V16.3047H20.2881ZM20.4723 16.3047H21.4723V15.3047H20.4723V16.3047ZM20.4723 17.0654H19.4723V18.0654H20.4723V17.0654ZM20.6564 17.0654V18.0654H21.6564V17.0654H20.6564ZM20.6564 16.3047V15.3047H19.6564V16.3047H20.6564ZM20.8406 16.3047H21.8406V15.3047H20.8406V16.3047ZM20.8406 17.0654H19.8406V18.0654H20.8406V17.0654ZM21.0248 17.0654V18.0654H22.0248V17.0654H21.0248ZM21.0248 16.3047V15.3047H20.0248V16.3047H21.0248ZM21.209 16.3047H22.209V15.3047H21.209V16.3047ZM21.209 17.2576V18.2576H22.209V17.2576H21.209ZM20.2801 17.2576H19.2801V18.2576H20.2801V17.2576ZM20.2801 16.8732H21.2801V15.8732H20.2801V16.8732ZM19.7195 16.8732V15.8732H18.7195V16.8732H19.7195ZM19.7195 17.0654H18.7195V18.0654H19.7195V17.0654ZM20.0959 17.0654H21.0959V16.0654H20.0959V17.0654ZM20.0959 17.2576H19.0959V18.2576H20.0959V17.2576ZM17.6855 18.2576H17.8697V16.2576H17.6855V18.2576ZM18.8697 17.2576V16.8732H16.8697V17.2576H18.8697ZM17.8697 17.8732H18.4303V15.8732H17.8697V17.8732ZM17.4303 16.8732V17.2576H19.4303V16.8732H17.4303ZM18.4303 18.2576H19.3592V16.2576H18.4303V18.2576ZM20.3592 17.2576V16.6891H18.3592V17.2576H20.3592ZM19.3592 15.6891H18.7986V17.6891H19.3592V15.6891ZM17.7986 16.6891V16.8813H19.7986V16.6891H17.7986ZM18.7986 17.8813H19.175V15.8813H18.7986V17.8813ZM18.175 16.8813V17.0734H20.175V16.8813H18.175ZM19.175 16.0734H18.6145V18.0734H19.175V16.0734ZM19.6145 17.0734V16.6891H17.6145V17.0734H19.6145ZM18.6145 15.6891H17.6855V17.6891H18.6145V15.6891ZM16.6855 16.6891V17.2576H18.6855V16.6891H16.6855ZM18.0539 18.2576H18.2381V16.2576H18.0539V18.2576ZM19.2381 17.2576V17.0654H17.2381V17.2576H19.2381ZM18.2381 16.0654H18.0539V18.0654H18.2381V16.0654ZM17.0539 17.0654V17.2576H19.0539V17.0654H17.0539ZM17.6855 17.4969H20.1119V15.4969H17.6855V17.4969ZM21.1119 16.4969V16.3047H19.1119V16.4969H21.1119ZM20.1119 15.3047H17.6855V17.3047H20.1119V15.3047ZM16.6855 16.3047V16.4969H18.6855V16.3047H16.6855ZM20.1039 16.2576H19.5434V18.2576H20.1039V16.2576ZM20.5434 17.2576V16.6891H18.5434V17.2576H20.5434ZM19.5434 17.6891H20.2881V15.6891H19.5434V17.6891ZM21.2881 16.6891V16.3047H19.2881V16.6891H21.2881ZM20.2881 17.3047H20.4723V15.3047H20.2881V17.3047ZM19.4723 16.3047V17.0654H21.4723V16.3047H19.4723ZM20.4723 18.0654H20.6564V16.0654H20.4723V18.0654ZM21.6564 17.0654V16.3047H19.6564V17.0654H21.6564ZM20.6564 17.3047H20.8406V15.3047H20.6564V17.3047ZM19.8406 16.3047V17.0654H21.8406V16.3047H19.8406ZM20.8406 18.0654H21.0248V16.0654H20.8406V18.0654ZM22.0248 17.0654V16.3047H20.0248V17.0654H22.0248ZM21.0248 17.3047H21.209V15.3047H21.0248V17.3047ZM20.209 16.3047V17.2576H22.209V16.3047H20.209ZM21.209 16.2576H20.2801V18.2576H21.209V16.2576ZM21.2801 17.2576V16.8732H19.2801V17.2576H21.2801ZM20.2801 15.8732H19.7195V17.8732H20.2801V15.8732ZM18.7195 16.8732V17.0654H20.7195V16.8732H18.7195ZM19.7195 18.0654H20.0959V16.0654H19.7195V18.0654ZM19.0959 17.0654V17.2576H21.0959V17.0654H19.0959ZM20.0959 18.2576H20.1039V16.2576H20.0959V18.2576Z" fill="white" mask="url(#path-49-inside-20_23916_2210)"/>
<mask id="path-51-inside-21_23916_2210" fill="white">
<path d="M21.4092 17.2576H21.5934V16.8732H22.1539V17.2576H23.0828V16.6891H22.5223V16.8813H22.8986V17.0734H22.3381V16.6891H21.4092V17.2576ZM21.7855 17.2576H21.9697V17.0654H21.7855V17.2576ZM21.4092 16.4969H23.8275V16.3047H21.4092V16.4969ZM23.8355 17.2576H23.275V16.6891H24.0197V16.3047H24.2039V17.0654H24.3881V16.3047H24.5723V17.0654H24.7564V16.3047H24.9406V17.2576H24.0117V16.8732H23.4512V17.0654H23.8275V17.2576H23.8355Z"/>
</mask>
<path d="M21.4092 17.2576H21.5934V16.8732H22.1539V17.2576H23.0828V16.6891H22.5223V16.8813H22.8986V17.0734H22.3381V16.6891H21.4092V17.2576ZM21.7855 17.2576H21.9697V17.0654H21.7855V17.2576ZM21.4092 16.4969H23.8275V16.3047H21.4092V16.4969ZM23.8355 17.2576H23.275V16.6891H24.0197V16.3047H24.2039V17.0654H24.3881V16.3047H24.5723V17.0654H24.7564V16.3047H24.9406V17.2576H24.0117V16.8732H23.4512V17.0654H23.8275V17.2576H23.8355Z" fill="white"/>
<path d="M21.4092 17.2576H20.4092V18.2576H21.4092V17.2576ZM21.5934 17.2576V18.2576H22.5934V17.2576H21.5934ZM21.5934 16.8732V15.8732H20.5934V16.8732H21.5934ZM22.1539 16.8732H23.1539V15.8732H22.1539V16.8732ZM22.1539 17.2576H21.1539V18.2576H22.1539V17.2576ZM23.0828 17.2576V18.2576H24.0828V17.2576H23.0828ZM23.0828 16.6891H24.0828V15.6891H23.0828V16.6891ZM22.5223 16.6891V15.6891H21.5223V16.6891H22.5223ZM22.5223 16.8813H21.5223V17.8813H22.5223V16.8813ZM22.8986 16.8813H23.8986V15.8813H22.8986V16.8813ZM22.8986 17.0734V18.0734H23.8986V17.0734H22.8986ZM22.3381 17.0734H21.3381V18.0734H22.3381V17.0734ZM22.3381 16.6891H23.3381V15.6891H22.3381V16.6891ZM21.4092 16.6891V15.6891H20.4092V16.6891H21.4092ZM21.7855 17.2576H20.7855V18.2576H21.7855V17.2576ZM21.9697 17.2576V18.2576H22.9697V17.2576H21.9697ZM21.9697 17.0654H22.9697V16.0654H21.9697V17.0654ZM21.7855 17.0654V16.0654H20.7855V17.0654H21.7855ZM21.4092 16.4969H20.4092V17.4969H21.4092V16.4969ZM23.8275 16.4969V17.4969H24.8275V16.4969H23.8275ZM23.8275 16.3047H24.8275V15.3047H23.8275V16.3047ZM21.4092 16.3047V15.3047H20.4092V16.3047H21.4092ZM23.275 17.2576H22.275V18.2576H23.275V17.2576ZM23.275 16.6891V15.6891H22.275V16.6891H23.275ZM24.0197 16.6891V17.6891H25.0197V16.6891H24.0197ZM24.0197 16.3047V15.3047H23.0197V16.3047H24.0197ZM24.2039 16.3047H25.2039V15.3047H24.2039V16.3047ZM24.2039 17.0654H23.2039V18.0654H24.2039V17.0654ZM24.3881 17.0654V18.0654H25.3881V17.0654H24.3881ZM24.3881 16.3047V15.3047H23.3881V16.3047H24.3881ZM24.5723 16.3047H25.5723V15.3047H24.5723V16.3047ZM24.5723 17.0654H23.5723V18.0654H24.5723V17.0654ZM24.7564 17.0654V18.0654H25.7564V17.0654H24.7564ZM24.7564 16.3047V15.3047H23.7564V16.3047H24.7564ZM24.9406 16.3047H25.9406V15.3047H24.9406V16.3047ZM24.9406 17.2576V18.2576H25.9406V17.2576H24.9406ZM24.0117 17.2576H23.0117V18.2576H24.0117V17.2576ZM24.0117 16.8732H25.0117V15.8732H24.0117V16.8732ZM23.4512 16.8732V15.8732H22.4512V16.8732H23.4512ZM23.4512 17.0654H22.4512V18.0654H23.4512V17.0654ZM23.8275 17.0654H24.8275V16.0654H23.8275V17.0654ZM23.8275 17.2576H22.8275V18.2576H23.8275V17.2576ZM21.4092 18.2576H21.5934V16.2576H21.4092V18.2576ZM22.5934 17.2576V16.8732H20.5934V17.2576H22.5934ZM21.5934 17.8732H22.1539V15.8732H21.5934V17.8732ZM21.1539 16.8732V17.2576H23.1539V16.8732H21.1539ZM22.1539 18.2576H23.0828V16.2576H22.1539V18.2576ZM24.0828 17.2576V16.6891H22.0828V17.2576H24.0828ZM23.0828 15.6891H22.5223V17.6891H23.0828V15.6891ZM21.5223 16.6891V16.8813H23.5223V16.6891H21.5223ZM22.5223 17.8813H22.8986V15.8813H22.5223V17.8813ZM21.8986 16.8813V17.0734H23.8986V16.8813H21.8986ZM22.8986 16.0734H22.3381V18.0734H22.8986V16.0734ZM23.3381 17.0734V16.6891H21.3381V17.0734H23.3381ZM22.3381 15.6891H21.4092V17.6891H22.3381V15.6891ZM20.4092 16.6891V17.2576H22.4092V16.6891H20.4092ZM21.7855 18.2576H21.9697V16.2576H21.7855V18.2576ZM22.9697 17.2576V17.0654H20.9697V17.2576H22.9697ZM21.9697 16.0654H21.7855V18.0654H21.9697V16.0654ZM20.7855 17.0654V17.2576H22.7855V17.0654H20.7855ZM21.4092 17.4969H23.8275V15.4969H21.4092V17.4969ZM24.8275 16.4969V16.3047H22.8275V16.4969H24.8275ZM23.8275 15.3047H21.4092V17.3047H23.8275V15.3047ZM20.4092 16.3047V16.4969H22.4092V16.3047H20.4092ZM23.8355 16.2576H23.275V18.2576H23.8355V16.2576ZM24.275 17.2576V16.6891H22.275V17.2576H24.275ZM23.275 17.6891H24.0197V15.6891H23.275V17.6891ZM25.0197 16.6891V16.3047H23.0197V16.6891H25.0197ZM24.0197 17.3047H24.2039V15.3047H24.0197V17.3047ZM23.2039 16.3047V17.0654H25.2039V16.3047H23.2039ZM24.2039 18.0654H24.3881V16.0654H24.2039V18.0654ZM25.3881 17.0654V16.3047H23.3881V17.0654H25.3881ZM24.3881 17.3047H24.5723V15.3047H24.3881V17.3047ZM23.5723 16.3047V17.0654H25.5723V16.3047H23.5723ZM24.5723 18.0654H24.7564V16.0654H24.5723V18.0654ZM25.7564 17.0654V16.3047H23.7564V17.0654H25.7564ZM24.7564 17.3047H24.9406V15.3047H24.7564V17.3047ZM23.9406 16.3047V17.2576H25.9406V16.3047H23.9406ZM24.9406 16.2576H24.0117V18.2576H24.9406V16.2576ZM25.0117 17.2576V16.8732H23.0117V17.2576H25.0117ZM24.0117 15.8732H23.4512V17.8732H24.0117V15.8732ZM22.4512 16.8732V17.0654H24.4512V16.8732H22.4512ZM23.4512 18.0654H23.8275V16.0654H23.4512V18.0654ZM22.8275 17.0654V17.2576H24.8275V17.0654H22.8275ZM23.8275 18.2576H23.8355V16.2576H23.8275V18.2576Z" fill="white" mask="url(#path-51-inside-21_23916_2210)"/>
<mask id="path-53-inside-22_23916_2210" fill="white">
<path d="M-0.948242 16.1107H0.72539V15.7344H-0.948242V16.1107ZM0.90957 16.1107H2.5832V15.7344H0.90957V16.1107Z"/>
</mask>
<path d="M-0.948242 16.1107H0.72539V15.7344H-0.948242V16.1107ZM0.90957 16.1107H2.5832V15.7344H0.90957V16.1107Z" fill="white"/>
<path d="M-0.948242 16.1107H-1.94824V17.1107H-0.948242V16.1107ZM0.72539 16.1107V17.1107H1.72539V16.1107H0.72539ZM0.72539 15.7344H1.72539V14.7344H0.72539V15.7344ZM-0.948242 15.7344V14.7344H-1.94824V15.7344H-0.948242ZM0.90957 16.1107H-0.0904298V17.1107H0.90957V16.1107ZM2.5832 16.1107V17.1107H3.5832V16.1107H2.5832ZM2.5832 15.7344H3.5832V14.7344H2.5832V15.7344ZM0.90957 15.7344V14.7344H-0.0904298V15.7344H0.90957ZM-0.948242 17.1107H0.72539V15.1107H-0.948242V17.1107ZM1.72539 16.1107V15.7344H-0.27461V16.1107H1.72539ZM0.72539 14.7344H-0.948242V16.7344H0.72539V14.7344ZM-1.94824 15.7344V16.1107H0.0517578V15.7344H-1.94824ZM0.90957 17.1107H2.5832V15.1107H0.90957V17.1107ZM3.5832 16.1107V15.7344H1.5832V16.1107H3.5832ZM2.5832 14.7344H0.90957V16.7344H2.5832V14.7344ZM-0.0904298 15.7344V16.1107H1.90957V15.7344H-0.0904298Z" fill="white" mask="url(#path-53-inside-22_23916_2210)"/>
<mask id="path-55-inside-23_23916_2210" fill="white">
<path d="M2.77539 16.1107H4.44902V15.7344H2.77539V16.1107ZM4.64121 16.1107H6.31484V15.7344H4.64121V16.1107Z"/>
</mask>
<path d="M2.77539 16.1107H4.44902V15.7344H2.77539V16.1107ZM4.64121 16.1107H6.31484V15.7344H4.64121V16.1107Z" fill="white"/>
<path d="M2.77539 16.1107H1.77539V17.1107H2.77539V16.1107ZM4.44902 16.1107V17.1107H5.44902V16.1107H4.44902ZM4.44902 15.7344H5.44902V14.7344H4.44902V15.7344ZM2.77539 15.7344V14.7344H1.77539V15.7344H2.77539ZM4.64121 16.1107H3.64121V17.1107H4.64121V16.1107ZM6.31484 16.1107V17.1107H7.31484V16.1107H6.31484ZM6.31484 15.7344H7.31484V14.7344H6.31484V15.7344ZM4.64121 15.7344V14.7344H3.64121V15.7344H4.64121ZM2.77539 17.1107H4.44902V15.1107H2.77539V17.1107ZM5.44902 16.1107V15.7344H3.44902V16.1107H5.44902ZM4.44902 14.7344H2.77539V16.7344H4.44902V14.7344ZM1.77539 15.7344V16.1107H3.77539V15.7344H1.77539ZM4.64121 17.1107H6.31484V15.1107H4.64121V17.1107ZM7.31484 16.1107V15.7344H5.31484V16.1107H7.31484ZM6.31484 14.7344H4.64121V16.7344H6.31484V14.7344ZM3.64121 15.7344V16.1107H5.64121V15.7344H3.64121Z" fill="white" mask="url(#path-55-inside-23_23916_2210)"/>
<mask id="path-57-inside-24_23916_2210" fill="white">
<path d="M6.49902 16.1107H8.17266V15.7344H6.49902V16.1107ZM8.36484 16.1107H10.0465V15.7344H8.36484V16.1107Z"/>
</mask>
<path d="M6.49902 16.1107H8.17266V15.7344H6.49902V16.1107ZM8.36484 16.1107H10.0465V15.7344H8.36484V16.1107Z" fill="white"/>
<path d="M6.49902 16.1107H5.49902V17.1107H6.49902V16.1107ZM8.17266 16.1107V17.1107H9.17266V16.1107H8.17266ZM8.17266 15.7344H9.17266V14.7344H8.17266V15.7344ZM6.49902 15.7344V14.7344H5.49902V15.7344H6.49902ZM8.36484 16.1107H7.36484V17.1107H8.36484V16.1107ZM10.0465 16.1107V17.1107H11.0465V16.1107H10.0465ZM10.0465 15.7344H11.0465V14.7344H10.0465V15.7344ZM8.36484 15.7344V14.7344H7.36484V15.7344H8.36484ZM6.49902 17.1107H8.17266V15.1107H6.49902V17.1107ZM9.17266 16.1107V15.7344H7.17266V16.1107H9.17266ZM8.17266 14.7344H6.49902V16.7344H8.17266V14.7344ZM5.49902 15.7344V16.1107H7.49902V15.7344H5.49902ZM8.36484 17.1107H10.0465V15.1107H8.36484V17.1107ZM11.0465 16.1107V15.7344H9.04648V16.1107H11.0465ZM10.0465 14.7344H8.36484V16.7344H10.0465V14.7344ZM7.36484 15.7344V16.1107H9.36484V15.7344H7.36484Z" fill="white" mask="url(#path-57-inside-24_23916_2210)"/>
<mask id="path-59-inside-25_23916_2210" fill="white">
<path d="M10.2305 16.1107H11.9121V15.7344H10.2305V16.1107ZM12.0963 16.1107H13.7779V15.7344H12.0963V16.1107Z"/>
</mask>
<path d="M10.2305 16.1107H11.9121V15.7344H10.2305V16.1107ZM12.0963 16.1107H13.7779V15.7344H12.0963V16.1107Z" fill="white"/>
<path d="M10.2305 16.1107H9.23047V17.1107H10.2305V16.1107ZM11.9121 16.1107V17.1107H12.9121V16.1107H11.9121ZM11.9121 15.7344H12.9121V14.7344H11.9121V15.7344ZM10.2305 15.7344V14.7344H9.23047V15.7344H10.2305ZM12.0963 16.1107H11.0963V17.1107H12.0963V16.1107ZM13.7779 16.1107V17.1107H14.7779V16.1107H13.7779ZM13.7779 15.7344H14.7779V14.7344H13.7779V15.7344ZM12.0963 15.7344V14.7344H11.0963V15.7344H12.0963ZM10.2305 17.1107H11.9121V15.1107H10.2305V17.1107ZM12.9121 16.1107V15.7344H10.9121V16.1107H12.9121ZM11.9121 14.7344H10.2305V16.7344H11.9121V14.7344ZM9.23047 15.7344V16.1107H11.2305V15.7344H9.23047ZM12.0963 17.1107H13.7779V15.1107H12.0963V17.1107ZM14.7779 16.1107V15.7344H12.7779V16.1107H14.7779ZM13.7779 14.7344H12.0963V16.7344H13.7779V14.7344ZM11.0963 15.7344V16.1107H13.0963V15.7344H11.0963Z" fill="white" mask="url(#path-59-inside-25_23916_2210)"/>
<mask id="path-61-inside-26_23916_2210" fill="white">
<path d="M13.9541 16.1107H15.6277V15.7344H13.9541V16.1107ZM15.8199 16.1107H17.4936V15.7344H15.8199V16.1107Z"/>
</mask>
<path d="M13.9541 16.1107H15.6277V15.7344H13.9541V16.1107ZM15.8199 16.1107H17.4936V15.7344H15.8199V16.1107Z" fill="white"/>
<path d="M13.9541 16.1107H12.9541V17.1107H13.9541V16.1107ZM15.6277 16.1107V17.1107H16.6277V16.1107H15.6277ZM15.6277 15.7344H16.6277V14.7344H15.6277V15.7344ZM13.9541 15.7344V14.7344H12.9541V15.7344H13.9541ZM15.8199 16.1107H14.8199V17.1107H15.8199V16.1107ZM17.4936 16.1107V17.1107H18.4936V16.1107H17.4936ZM17.4936 15.7344H18.4936V14.7344H17.4936V15.7344ZM15.8199 15.7344V14.7344H14.8199V15.7344H15.8199ZM13.9541 17.1107H15.6277V15.1107H13.9541V17.1107ZM16.6277 16.1107V15.7344H14.6277V16.1107H16.6277ZM15.6277 14.7344H13.9541V16.7344H15.6277V14.7344ZM12.9541 15.7344V16.1107H14.9541V15.7344H12.9541ZM15.8199 17.1107H17.4936V15.1107H15.8199V17.1107ZM18.4936 16.1107V15.7344H16.4936V16.1107H18.4936ZM17.4936 14.7344H15.8199V16.7344H17.4936V14.7344ZM14.8199 15.7344V16.1107H16.8199V15.7344H14.8199Z" fill="white" mask="url(#path-61-inside-26_23916_2210)"/>
<mask id="path-63-inside-27_23916_2210" fill="white">
<path d="M17.6855 16.1107H19.3592V15.7344H17.6855V16.1107ZM19.5514 16.1107H21.225V15.7344H19.5514V16.1107Z"/>
</mask>
<path d="M17.6855 16.1107H19.3592V15.7344H17.6855V16.1107ZM19.5514 16.1107H21.225V15.7344H19.5514V16.1107Z" fill="white"/>
<path d="M17.6855 16.1107H16.6855V17.1107H17.6855V16.1107ZM19.3592 16.1107V17.1107H20.3592V16.1107H19.3592ZM19.3592 15.7344H20.3592V14.7344H19.3592V15.7344ZM17.6855 15.7344V14.7344H16.6855V15.7344H17.6855ZM19.5514 16.1107H18.5514V17.1107H19.5514V16.1107ZM21.225 16.1107V17.1107H22.225V16.1107H21.225ZM21.225 15.7344H22.225V14.7344H21.225V15.7344ZM19.5514 15.7344V14.7344H18.5514V15.7344H19.5514ZM17.6855 17.1107H19.3592V15.1107H17.6855V17.1107ZM20.3592 16.1107V15.7344H18.3592V16.1107H20.3592ZM19.3592 14.7344H17.6855V16.7344H19.3592V14.7344ZM16.6855 15.7344V16.1107H18.6855V15.7344H16.6855ZM19.5514 17.1107H21.225V15.1107H19.5514V17.1107ZM22.225 16.1107V15.7344H20.225V16.1107H22.225ZM21.225 14.7344H19.5514V16.7344H21.225V14.7344ZM18.5514 15.7344V16.1107H20.5514V15.7344H18.5514Z" fill="white" mask="url(#path-63-inside-27_23916_2210)"/>
<mask id="path-65-inside-28_23916_2210" fill="white">
<path d="M21.4092 16.1107H23.0828V15.7344H21.4092V16.1107ZM23.275 16.1107H24.9486V15.7344H23.275V16.1107Z"/>
</mask>
<path d="M21.4092 16.1107H23.0828V15.7344H21.4092V16.1107ZM23.275 16.1107H24.9486V15.7344H23.275V16.1107Z" fill="white"/>
<path d="M21.4092 16.1107H20.4092V17.1107H21.4092V16.1107ZM23.0828 16.1107V17.1107H24.0828V16.1107H23.0828ZM23.0828 15.7344H24.0828V14.7344H23.0828V15.7344ZM21.4092 15.7344V14.7344H20.4092V15.7344H21.4092ZM23.275 16.1107H22.275V17.1107H23.275V16.1107ZM24.9486 16.1107V17.1107H25.9486V16.1107H24.9486ZM24.9486 15.7344H25.9486V14.7344H24.9486V15.7344ZM23.275 15.7344V14.7344H22.275V15.7344H23.275ZM21.4092 17.1107H23.0828V15.1107H21.4092V17.1107ZM24.0828 16.1107V15.7344H22.0828V16.1107H24.0828ZM23.0828 14.7344H21.4092V16.7344H23.0828V14.7344ZM20.4092 15.7344V16.1107H22.4092V15.7344H20.4092ZM23.275 17.1107H24.9486V15.1107H23.275V17.1107ZM25.9486 16.1107V15.7344H23.9486V16.1107H25.9486ZM24.9486 14.7344H23.275V16.7344H24.9486V14.7344ZM22.275 15.7344V16.1107H24.275V15.7344H22.275Z" fill="white" mask="url(#path-65-inside-28_23916_2210)"/>
</g>
</svg>