
<svg width="152" height="60" viewBox="0 0 152 60" fill="none" xmlns="http://www.w3.org/2000/svg">
<path d="M135.798 27.6455C135.351 24.1589 133.374 21.0137 130.301 18.9019C127.229 16.79 123.312 15.8844 119.414 16.3844C115.516 16.8844 111.956 18.7489 109.515 21.5678C107.075 24.3868 105.956 27.9292 106.403 31.4158L116.114 30.1703C115.962 28.9873 116.342 27.7854 117.17 26.829C117.998 25.8726 119.206 25.24 120.528 25.0703C121.851 24.9007 123.18 25.2079 124.222 25.9245C125.265 26.641 125.936 27.7081 126.087 28.8911L135.798 27.6455Z" fill="#194BF0"/>
<path d="M136.002 30.526C136.445 34.0131 135.322 37.5542 132.878 40.3703C130.435 43.1864 126.872 45.0468 122.973 45.5422C119.075 46.0376 115.16 45.1275 112.09 43.012C109.019 40.8966 107.046 37.7491 106.603 34.2619L116.315 33.0277C116.465 34.2109 117.135 35.2788 118.177 35.9965C119.218 36.7143 120.547 37.023 121.869 36.855C123.192 36.6869 124.401 36.0557 125.23 35.1002C126.059 34.1448 126.44 32.9433 126.29 31.7602L136.002 30.526Z" fill="#FDB713"/>
<circle cx="121.217" cy="31" r="3.5" fill="#194BF0"/>
<circle cx="121.717" cy="30.5" r="25" stroke="#194BF0" stroke-width="8"/>
<path d="M150.508 21.1623C152.544 28.9431 152.426 33.3099 150.483 41.0862L140.739 37.5583C141.31 32.5506 141.271 29.8697 140.754 25.2524L150.508 21.1623Z" fill="#FDB713"/>
<path d="M95.6256 13.8182C100.549 7.45884 104.081 4.88828 111.428 1.68409L114.577 11.5576C110.26 14.1599 108.16 15.8264 104.816 19.0522L95.6256 13.8182Z" fill="#FDB713"/>
<path d="M22.6973 28.1133C22.5801 28.7305 22.4824 29.293 22.4043 29.8008C22.334 30.3086 22.2988 30.75 22.2988 31.125C22.2988 31.5156 22.3574 31.8477 22.4746 32.1211C22.5918 32.3867 22.7871 32.5898 23.0605 32.7305C23.3418 32.8633 23.7285 32.9297 24.2207 32.9297H24.2441V37.5H24.2207C22.9707 37.5 21.9277 37.3047 21.0918 36.9141C20.2559 36.5234 19.4902 35.875 18.7949 34.9688C17.7324 35.9219 16.498 36.582 15.0918 36.9492C13.6934 37.3164 12.123 37.5 10.3809 37.5C8.26367 37.5 6.55664 37.2227 5.25977 36.668C3.9707 36.1055 3.0332 35.3086 2.44727 34.2773C1.86133 33.2461 1.56836 32.0312 1.56836 30.6328C1.56836 29.9375 1.62695 29.1992 1.74414 28.418C1.86914 27.6367 2.05273 26.8242 2.29492 25.9805L6.2793 27.0469C6.12305 27.6328 6.00586 28.1758 5.92773 28.6758C5.85742 29.1758 5.82227 29.6172 5.82227 30C5.82227 30.7422 5.98242 31.3281 6.30273 31.7578C6.62305 32.1797 7.16211 32.4805 7.91992 32.6602C8.68555 32.8398 9.7207 32.9297 11.0254 32.9297C12.2129 32.9297 13.2324 32.8281 14.084 32.625C14.9434 32.4141 15.666 32.0898 16.252 31.6523C16.8457 31.207 17.3223 30.6367 17.6816 29.9414C18.0488 29.2461 18.3301 28.4062 18.5254 27.4219L22.6973 28.1133ZM11.5879 27.0703L13.9902 24.668L16.3926 27.0703L13.9902 29.4727L11.5879 27.0703ZM7.48633 27.0703L9.88867 24.668L12.291 27.0703L9.88867 29.4727L7.48633 27.0703ZM30.2676 26.3906C30.5098 27.3828 30.6973 28.3242 30.8301 29.2148C30.9707 30.0977 31.041 30.9219 31.041 31.6875C31.041 32.8594 30.8223 33.8828 30.3848 34.7578C29.9473 35.625 29.2559 36.3008 28.3105 36.7852C27.373 37.2617 26.1426 37.5 24.6191 37.5H24.2559C24.0762 37.5 23.9355 37.3477 23.834 37.043C23.7246 36.7383 23.6699 36.125 23.6699 35.2031C23.6699 34.2734 23.7246 33.6641 23.834 33.375C23.9355 33.0781 24.0762 32.9297 24.2559 32.9297H24.6191C25.2754 32.9297 25.7598 32.7891 26.0723 32.5078C26.3926 32.2266 26.5527 31.7461 26.5527 31.0664C26.5527 30.6602 26.498 30.168 26.3887 29.5898C26.2871 29.0039 26.1465 28.332 25.9668 27.5742L30.2676 26.3906ZM24.6895 23.0508L27.0918 20.6484L29.4941 23.0508L27.0918 25.4531L24.6895 23.0508ZM37.2051 44.5938L37.6387 46.0234L32.2129 47.7578L31.7793 46.3047L37.2051 44.5938ZM33.8652 29.0742L38.1895 27.5742C38.6582 29.0117 39.0332 30.3555 39.3145 31.6055C39.5957 32.8477 39.7363 34.0078 39.7363 35.0859C39.7363 36.5312 39.4473 37.8359 38.8691 39C38.2988 40.1641 37.4004 41.2031 36.1738 42.1172C34.9551 43.0391 33.3691 43.8477 31.416 44.543L29.4121 40.4414C30.7871 39.9727 31.8965 39.4922 32.7402 39C33.584 38.5078 34.1973 37.9492 34.5801 37.3242C34.9707 36.6992 35.166 35.9531 35.166 35.0859C35.166 34.3359 35.0527 33.4414 34.8262 32.4023C34.5996 31.3555 34.2793 30.2461 33.8652 29.0742Z" fill="#FDB713"/>
<path d="M47.9863 32.8711C47.9316 32.4102 47.8652 32.0352 47.7871 31.7461C47.7168 31.4492 47.6309 31.2188 47.5293 31.0547C47.4355 30.8906 47.3262 30.7773 47.2012 30.7148C47.084 30.6445 46.9473 30.6094 46.791 30.6094C46.5879 30.6094 46.416 30.6836 46.2754 30.832C46.1348 30.9727 46.0293 31.168 45.959 31.418C45.8965 31.6602 45.8652 31.9375 45.8652 32.25C45.8652 32.4688 45.9316 32.6367 46.0645 32.7539C46.2051 32.8711 46.4785 32.9297 46.8848 32.9297C47.0723 32.9297 47.2715 32.9258 47.4824 32.918C47.6934 32.9023 47.8613 32.8867 47.9863 32.8711ZM47.3535 37.5C47.166 37.5 46.9824 37.5 46.8027 37.5C46.623 37.5 46.4434 37.5 46.2637 37.5C44.8652 37.5 43.7871 37.082 43.0293 36.2461C42.2715 35.4102 41.8926 34.2305 41.8926 32.707C41.8926 31.9727 41.9902 31.2266 42.1855 30.4688C42.3809 29.7031 42.6816 29 43.0879 28.3594C43.4941 27.7109 44.0098 27.1914 44.6348 26.8008C45.2676 26.4023 46.0176 26.2031 46.8848 26.2031C47.7988 26.2031 48.5723 26.3672 49.2051 26.6953C49.8379 27.0234 50.3574 27.4883 50.7637 28.0898C51.1699 28.6914 51.4824 29.4023 51.7012 30.2227C51.9199 31.043 52.0684 31.9453 52.1465 32.9297H52.8496V37.5H51.9473C51.541 39.1094 50.6582 40.4805 49.2988 41.6133C47.9473 42.7539 46.0723 43.7305 43.6738 44.543L41.6699 40.418C42.959 39.9805 44.1074 39.5117 45.1152 39.0117C46.1309 38.5195 46.877 38.0156 47.3535 37.5ZM52.8496 32.9297H62.9512V37.5H52.8496C52.6699 37.5 52.5293 37.3477 52.4277 37.043C52.3184 36.7383 52.2637 36.125 52.2637 35.2031C52.2637 34.2734 52.3184 33.6641 52.4277 33.375C52.5293 33.0781 52.6699 32.9297 52.8496 32.9297ZM62.9512 32.9297H73.0527V37.5H62.9512C62.7715 37.5 62.6309 37.3477 62.5293 37.043C62.4199 36.7383 62.3652 36.125 62.3652 35.2031C62.3652 34.2734 62.4199 33.6641 62.5293 33.375C62.6309 33.0781 62.7715 32.9297 62.9512 32.9297ZM79.0645 26.3906C79.3066 27.3828 79.4941 28.3242 79.627 29.2148C79.7676 30.0977 79.8379 30.9219 79.8379 31.6875C79.8379 32.8594 79.6191 33.8828 79.1816 34.7578C78.7441 35.625 78.0527 36.3008 77.1074 36.7852C76.1699 37.2617 74.9395 37.5 73.416 37.5H73.0527C72.873 37.5 72.7324 37.3477 72.6309 37.043C72.5215 36.7383 72.4668 36.125 72.4668 35.2031C72.4668 34.2734 72.5215 33.6641 72.6309 33.375C72.7324 33.0781 72.873 32.9297 73.0527 32.9297H73.416C74.0723 32.9297 74.5566 32.7891 74.8691 32.5078C75.1895 32.2266 75.3496 31.7461 75.3496 31.0664C75.3496 30.6602 75.2949 30.168 75.1855 29.5898C75.084 29.0039 74.9434 28.332 74.7637 27.5742L79.0645 26.3906ZM75.5605 23.543L77.9629 21.1406L80.3652 23.543L77.9629 25.9453L75.5605 23.543ZM71.459 23.543L73.8613 21.1406L76.2637 23.543L73.8613 25.9453L71.459 23.543ZM84.6191 12.6992C84.4004 12.6992 84.1895 12.7852 83.9863 12.957C83.791 13.1211 83.6934 13.3164 83.6934 13.543C83.6934 13.7227 83.748 13.8789 83.8574 14.0117C83.9668 14.1367 84.0996 14.2422 84.2559 14.3281C84.4199 14.4141 84.5801 14.4844 84.7363 14.5391C84.8926 14.3594 84.998 14.1797 85.0527 14C85.1152 13.8125 85.1465 13.6211 85.1465 13.4258C85.1465 13.2227 85.1035 13.0508 85.0176 12.9102C84.9316 12.7695 84.7988 12.6992 84.6191 12.6992ZM84.8066 11.1875C85.3613 11.1875 85.8066 11.3906 86.1426 11.7969C86.4863 12.2031 86.6582 12.7148 86.6582 13.332C86.6582 13.9492 86.4902 14.5078 86.1543 15.0078C85.8184 15.5 85.3809 15.9375 84.8418 16.3203C84.3105 16.6953 83.7402 17.0156 83.1309 17.2812C82.5137 17.5391 81.9277 17.7422 81.373 17.8906L80.9746 16.4727C81.2402 16.3945 81.5488 16.2891 81.9004 16.1562C82.2441 16.0156 82.5723 15.875 82.8848 15.7344C83.1973 15.5938 83.4238 15.4883 83.5645 15.418C83.3535 15.3242 83.1465 15.1953 82.9434 15.0312C82.7402 14.8594 82.5723 14.6523 82.4395 14.4102C82.3066 14.168 82.2402 13.8906 82.2402 13.5781C82.2402 13.1562 82.3652 12.7656 82.6152 12.4062C82.8652 12.0391 83.1855 11.7461 83.5762 11.5273C83.9668 11.3008 84.377 11.1875 84.8066 11.1875ZM86.0605 37.5H81.4902V19.8633H86.0605V37.5Z" fill="#194BF0"/>
</svg>
